<svg width="200mm" height="168mm" version="1.1" viewBox="0 0 200 168" xml:space="preserve" xmlns="http://www.w3.org/2000/svg"><path d="m98.52 3.8302-68.541 40.329 0.65925 79.522 69.197 39.193 68.538-40.332-0.65616-79.522zm0.07121 8.8737 61.475 34.817 0.58495 70.649-60.89 35.828-61.475-34.817-0.58497-70.649z" color="#000000" fill="#004646" stroke="#004646" stroke-width=".41994"/><path d="m85.296 0.73421c-0.24722-0.02037-0.48469 0.17192-0.66496 0.47824-0.24035 0.40842-0.38022 1.0206-0.48724 1.6517-0.10704 0.63115-0.19177 1.3294-0.29399 1.5764-0.1022 0.24702-0.22194 0.04264-0.59207-0.25796-0.37012-0.30058-0.99082-0.69689-1.4175-0.90487-0.42667-0.208-0.68244-0.24257-0.97204-0.13184-0.2896 0.11072-0.61287 0.36666-0.60435 0.7755 0.0086 0.40884 0.34883 0.97101 0.51919 1.5076 0.17035 0.53662 0.17064 1.0472 0.33248 1.456 0.16184 0.40885 0.48539 0.71534 0.97941 1.2349 0.49402 0.51958 1.1584 1.2526 1.6353 2.0874 0.47699 0.83474 0.76647 1.7718 1.022 2.8195 0.25553 1.0477 0.47731 2.2057 0.53638 3.577 0.05909 1.3713-0.04468 2.9552 0.02456 4.1052 0.06925 1.15 0.30772 1.9166 0.50363 2.8195 0.19591 0.90289 0.34955 1.9424 0.68544 2.9112 0.33587 0.96886 0.85454 1.8676 1.4945 3.2773 0.63997 1.4096 1.4235 3.3686 2.211 4.9675 0.78749 1.5989 1.5786 2.8375 2.2438 4.0945 0.66516 1.257 1.227 2.5688 1.4741 3.6761 0.24702 1.1073 0.17919 2.01 0.11961 2.9128-0.05962 0.90289-0.11032 1.8056-0.30628 2.0612-0.19591 0.25554-0.53666-0.13628-0.91147-0.55358-0.37478-0.41736-0.78381-0.86026-1.1415-1.2521-0.35774-0.39181-0.66475-0.73287-0.90324-1.0311-0.2385-0.2981-0.40849-0.55329-0.47578-0.85983-0.06735-0.30656-0.03138-0.66408 0.01799-1.0646 0.04937-0.4005 0.11732-0.89466 6e-3 -1.5846-0.11068-0.68994-0.40058-1.5755-0.71573-2.3421-0.31515-0.76659-0.65591-1.4143-0.99666-2.0702-0.34071-0.65586-0.68079-1.3204-0.97041-1.4822-0.2896-0.16184-0.52803 0.17893-0.59618 0.82627-0.06808 0.64735 0.03392 1.6014 0.19572 2.4191 0.16184 0.81772 0.38288 1.4992 0.68953 2.0358 0.30663 0.53662 0.6985 0.92829 0.86884 1.2775 0.17037 0.34923 0.11937 0.65609 0.01726 0.84348-0.10223 0.18739-0.25565 0.25569-0.44303 0.05974-0.18738-0.1959-0.40861-0.65606-0.62154-1.0564-0.21295-0.40033-0.41713-0.74106-0.57898-1.1244-0.16183-0.38331-0.28136-0.80887-0.41764-1.1752-0.13628-0.36627-0.28937-0.67344-0.4938-0.96303-0.20443-0.2896-0.4602-0.56206-0.5454-0.85165-0.08518-0.2896-1.7e-4 -0.59612 0.06797-1.022 0.0682-0.42588 0.11937-0.97101 0.05974-1.465-0.05962-0.49402-0.23027-0.93686-0.48151-1.0097-0.25125-0.07289-0.58265 0.22424-0.84676 0.1826-0.2641-0.04167-0.4856-0.39891-0.61337-0.75667-0.12777-0.35774-0.16196-0.71616-0.30382-0.84512-0.14186-0.129-0.39143-0.02883-0.62728 0.2375-0.23585 0.26638-0.44075 0.69238-0.33002 1.3397 0.11072 0.64735 0.53683 1.5162 0.88608 2.2061 0.34922 0.68994 0.62185 1.2007 0.86884 1.7459 0.24701 0.54513 0.46872 1.1241 0.71573 1.7885 0.24701 0.66438 0.51949 1.4145 0.68133 2.1726 0.16184 0.75806 0.2129 1.5246 0.34067 2.1889 0.12776 0.66438 0.33228 1.2263 0.57078 1.7034 0.2385 0.477 0.51043 0.86892 1.0981 1.4397 0.58772 0.57068 1.4904 1.3198 2.3167 2.112 0.82622 0.79215 1.5761 1.6269 2.2405 2.4616 0.66438 0.83474 1.2437 1.6702 1.6804 2.5894 0.4367 0.91919 0.73094 1.9226 0.93927 2.8269 0.20835 0.90418 0.34442 1.7556 0.39554 2.6926 0.05106 0.93695 0.01702 1.9595 0 3.152-0.01702 1.1925-0.01666 2.5554-0.05082 3.4583-0.03404 0.90289-0.10283 1.2945-0.36687 1.6607-0.26404 0.36625-0.72352 0.70653-1.2005 0.81727-0.47698 0.1108-0.97101-8e-3 -1.6427-8e-3 -0.67174-1.7e-4 -1.5216 0.11816-1.8646 0.35704-0.34305 0.23881-0.1725 0.59695 0.24486 0.85248 0.41736 0.25553 1.0822 0.40843 1.6018 0.6895 0.51958 0.2811 0.8944 0.69011 1.2095 1.3545 0.31516 0.66437 0.5701 1.5842 0.51264 2.7262-0.05745 1.142-0.42804 2.5064-0.81563 3.9447-0.38761 1.4383-0.77905 2.9035-1.2816 4.7603-0.50254 1.8568-1.1162 4.1048-1.6157 6.0051s-0.88531 3.4525-1.3553 4.2886c-0.46995 0.83614-1.0242 0.95677-1.2169 1.3422-0.04296 0.0859-0.06288 0.18915-0.07616 0.30136-0.10356-0.0569-0.20837-0.11551-0.30546-0.17279-0.34084-0.2013-0.63019-0.44199-0.8361-1.2128-0.20591-0.77083-0.3286-2.0716-0.1818-3.3125 0.1468-1.2409 0.5565-2.494 0.5806-3.3854 0.02414-0.89139-0.33718-1.421-0.78288-1.9269-0.44569-0.50593-0.97572-0.98782-1.578-1.6624-0.60229-0.67456-1.2768-1.5418-1.6984-2.4452-0.42154-0.9034-0.58997-1.8431-0.81884-2.8309-0.22888-0.98774-0.51811-2.0233-0.79516-3.2158-0.27705-1.1925-0.54182-2.5418-0.83692-3.3666-0.2951-0.82465-0.62049-1.1248-1.0662-1.6558-0.44573-0.53097-1.0477-1.3264-1.3618-1.8925-0.31411-0.56607-0.34071-0.90238-0.57979-0.95076-0.23907-0.0483-0.69642 0.11985-1.0457 0.62565-0.34933 0.50593-0.59062 1.349-0.43402 2.1078 0.1566 0.75888 0.71096 1.4337 1.0376 2.2045 0.3266 0.77078 0.42583 1.6376 0.70016 2.469 0.27433 0.83147 0.73227 1.6989 1.2382 2.5542 0.50593 0.85525 1.0595 1.6982 1.1318 2.144 0.07227 0.4457-0.33657 0.49385-0.71 0.28907-0.37342-0.20478-0.71108-0.66223-1.1808-0.93926-0.46979-0.27706-1.0724-0.37368-1.759-0.75914-0.68661-0.38546-1.4574-1.0594-2.1922-1.5895-0.7348-0.53001-1.4336-0.91602-2.2045-1.2292-0.77094-0.31319-1.6141-0.55348-2.2405-0.5896-0.62639-0.0361-1.0353 0.13247-1.5052 0-0.46979-0.13248-0.99966-0.56631-1.2767-1.1686-0.27706-0.60228-0.30153-1.3732-0.53638-2.0064-0.23486-0.63304-0.68042-1.1282-0.96955-1.5485-0.28917-0.42034-0.45765-0.80583-0.60436-0.66169-0.14671 0.14421-0.27148 0.81786-0.1949 1.4692 0.07659 0.65128 0.34178 1.35 0.52247 2.0366 0.18069 0.6866 0.27629 1.3612 0.16787 1.8671-0.10842 0.50594-0.42152 0.84282-0.86721 0.97529-0.4457 0.13248-1.0238 0.0609-1.4094-0.0475-0.38547-0.10839-0.57786-0.25346-0.77059-0.10887-0.19274 0.14452-0.38522 0.57827-0.18671 1.0163 0.19851 0.43799 0.7881 0.88059 2.1136 1.0286 1.3255 0.14785 3.421 0.0273 5.4326 0.58142 2.0117 0.5541 3.9391 1.7827 5.4809 2.65 1.5419 0.86729 2.6986 1.3731 3.6262 2.3969 0.92751 1.0239 1.626 2.5655 2.3126 4.3844 0.68661 1.8189 1.3612 3.9148 2.1562 5.7217 0.79503 1.8069 1.7107 3.3252 2.5419 4.3853 0.61712 0.78705 1.1862 1.3201 1.5919 1.6665-0.05516 0.25828-0.10283 0.53274-0.16297 0.76567-0.23654 0.91636-0.50172 1.6391-0.83283 2.2487-0.33111 0.60963-0.72855 1.1059-0.81317 1.6092-0.08463 0.50327 0.10852 1.0579 0.3374 1.6722 0.22887 0.61433 0.49374 1.2882 0.69854 2.1193 0.20478 0.83116 0.34948 1.8192 0.50608 2.7106 0.15659 0.8914 0.3249 1.6865 0.39717 2.6623 0.0723 0.97572 0.04853 2.1322-0.31282 2.5779-0.36137 0.44572-1.0603 0.18087-2.2528 0.13264-1.1925-0.0481-2.8787 0.11985-3.3486 0.33658-0.4698 0.21683 0.27684 0.48245 0.44548 0.81973 0.16865 0.33728-0.24114 0.74647-0.01236 1.0596 0.22887 0.31319 1.0965 0.53039 2.2168 0.80744 1.1203 0.27705 2.493 0.61431 3.3034 1.1915 0.81042 0.57719 1.0581 1.394 1.4609 2.5042 0.40287 1.1102 0.98122 2.5798 1.7762 4.1699 0.79501 1.59 1.8072 3.3002 2.5059 4.8783 0.69866 1.578 1.0839 3.0235 0.77632 4.4729-0.30756 1.4494-1.3079 2.9031-2.7646 5.0756-1.4567 2.1725-3.5119 5.5951-3.0191 5.9065 1.1218 0.70883 0.15689 0.0987 1.2772 0.73374 1.6699 0.94664 0.1468-0.051 1.7958 1.0014 1.375 0.87742 0.55643 0.43673 1.2065 0.82542 1.5648 0.93558 1.1396 0.60747 1.2162 0.492 1.1776-1.7754 0.1851-0.31705 0.63867-0.99846s0.87587-1.3796 1.4274-2.2143c0.55152-0.83472 1.2325-1.8058 1.7295-2.5804 0.49704-0.77461 0.80936-1.3528 0.96303-1.637 0.15366-0.28419 1.0082-1.4202 1.316-1.8319 0.30775-0.41176 0.49902-0.67132 0.6715-0.93112 0.0938-0.14119 0.17205-0.28957 0.22029-0.45777 0.19554-0.158 0.35969-0.35556 0.4414-0.4766 0.11104-0.16451 0.6261-1.0394 1.3397-1.5175 0.71362-0.47809 1.8886-1.0069 3.3706-1.3561 1.4821-0.34924 3.2708-0.51884 4.8169-0.69772 1.5459-0.17888 2.849-0.36653 4.0372-0.52411 1.1882-0.15752 2.2619-0.2853 3.1094-0.42582 0.84751-0.14057 1.4692-0.29381 1.9334-0.5536 0.46421-0.25977 0.77115-0.6266 0.968-1.0097 0.19679-0.3831 0.28346-0.78262 0.32429-0.9704 0.0409-0.18778-0.0109-0.89483-0.10392-1.1334-0.0933-0.23853-0.25531-0.37476-0.55768-0.40456s-0.74566 0.0469-1.0736 0.21293c-0.32792 0.16609-0.54078 0.42187-0.76649 0.71571-0.22571 0.29387-0.46428 0.62613-0.7624 0.80498-0.29811 0.17888-0.6556 0.20443-0.89834 0.10646-0.24276-0.0979-0.37111-0.31999-0.53722-0.57979-0.16609-0.25978-0.37028-0.55765-0.55112-0.75912-0.18083-0.20148-0.33754-0.3061-0.41028-0.3546-0.0727-0.0486-0.51157 0.28873-0.7198 0.55769-0.20825 0.26898-0.39952 0.63362-0.48971 0.80582-0.0902 0.17218-0.9427 0.24061-1.3087 0.26614-0.36592 0.0254-0.67229 0.0425-0.92786-0.0173-0.25553-0.0597-0.4597-0.19602-0.70672-0.31527-0.24699-0.11936-0.537-0.22111-0.79678-0.19981-0.2598 0.0213-0.48968 0.16572-0.72392 0.34886-0.23423 0.18312-0.47314 0.40436-0.64775 0.45121-0.17462 0.0469-0.2853-0.0802-0.44712-0.2293-0.16185-0.14912-0.37487-0.31953-0.67724-0.40042-0.30238-0.081-0.69358-0.0724-0.99168 0.0851-0.29812 0.15751-0.50244 0.46411-0.80908 0.80907-0.30663 0.34496-0.716 0.72831-1.1121 0.9753-0.39607 0.24702-0.77947 0.35751-0.98431 0.28089-0.20484-0.0766-0.23127-0.34091-0.2432-0.46023-0.0127-0.11937 0.90272-1.6026 1.1227-1.9597 0.0821-0.13327 0.44004-0.75667 0.73622-1.266 4e-3 3e-3 6e-3 9e-3 0.01 0.0109 0.37052 0.26405 1.0262 0.19624 1.6394-0.13597 0.61328-0.3322 1.1842-0.92871 1.8614-1.542 0.67718-0.61327 1.4607-1.2437 2.1996-1.8974 0.73891-0.65366 1.433-1.3301 1.7738-1.6624 0.34071-0.33229 3.034-0.92932 4.6096-1.2529 1.5757-0.32362 3.3832-0.67325 4.2846-0.84757 0.90126-0.1743 4.9928-1.8278 6.7289-2.6918 1.7361-0.86395 3.1672-1.7664 4.4278-2.614 1.2516-0.84149 2.3332-1.6284 3.2281-2.3732 0.12107 0.0741 0.25469 0.11502 0.38489 0.12613 0.25127 0.0213 0.48968-0.0633 0.76649-0.208 0.27684-0.14483 0.59168-0.34947 1.0474-0.56668 0.4557-0.21719 1.0522-0.44724 1.9891-0.82628 0.93695-0.37903 2.2148-0.90701 3.1528-1.248 0.93798-0.34098 1.5358-0.49464 1.8319-0.57076 0.29607-0.076 1.3377-0.45219 1.7836-0.67315 0.44583-0.22099 0.82048-0.47658 1.3316-0.71082 0.51105-0.23424 1.1589-0.44725 1.687-0.74111 0.52809-0.29385 0.93661-0.66886 1.3667-0.92863 0.43014-0.25979 0.88136-0.40436 1.533-0.47252 0.6516-0.0682 1.5039-0.0593 2.2577-0.072 0.75383-0.0127 1.4097-0.0466 2.121-0.0467 0.71123 0 1.4776 0.0341 2.0866 0.10645 0.60904 0.0724 1.0603 0.18242 1.533 0.33575 0.47275 0.15324 0.96681 0.34948 1.2096 0.60927s0.2342 0.58318 0.29809 0.94089c0.0638 0.35774 0.19993 0.75025 0.4938 1.0441 0.29386 0.29386 0.74564 0.48904 1.2226 0.56996 0.47699 0.081 0.97985 0.0474 1.4143-0.0335 0.43441-0.081 0.80054-0.20881 1.1285-0.42175 0.32793-0.21294 0.61708-0.51128 0.85983-0.82219 0.24276-0.31088 0.43874-0.63462 0.67724-0.78369 0.23851-0.14911 0.51946-0.12297 0.89423-0.0127 0.37477 0.1108 0.84324 0.30609 1.3586 0.502 0.51532 0.19591 1.0778 0.3919 1.4781 0.63466 0.40035 0.24277 0.63906 0.53273 0.90736 0.81809 0.2683 0.28535 0.56649 0.5665 0.69852 0.78369 0.132 0.21719 0.0979 0.37013 0.21292 0.51918 0.11503 0.14913 0.3783 0.2938 0.69772 0.38324 0.31942 0.0893 0.69486 0.12394 1.108 0.26452 0.4131 0.14057 0.86386 0.38714 1.2259 0.68952 0.36198 0.30236 0.63493 0.66049 0.98842 0.96715 0.35349 0.30665 0.78756 0.56206 1.2177 0.74521 0.43013 0.18312 0.85603 0.29334 1.1669 0.14009 0.31089-0.15339 0.50702-0.57059 0.82217-0.87296 0.31516-0.30238 0.74994-0.48953 0.90324-0.74931 0.1534-0.25978 0.0248-0.59188-0.34149-0.87295-0.36624-0.28108-0.97049-0.51115-1.456-0.71983-0.48552-0.20869-0.85162-0.39585-1.171-0.55768-0.31942-0.16183-0.5919-0.29805-0.80909-0.57487-0.2172-0.27681-0.37933-0.69407-0.28989-1.022 0.0893-0.32793 0.43021-0.56648 0.74111-0.76239 0.3109-0.19592 0.59204-0.34982 0.95402-0.49463 0.362-0.14484 0.80509-0.2812 1.3545-0.42173 0.54938-0.14056 1.2047-0.28528 1.6902-0.53229 0.4855-0.24702 0.80093-0.59607 0.77057-1.022-0.0304-0.42593-0.40605-0.9288-0.85166-1.2235-0.44559-0.29468-0.96157-0.38118-1.488-0.36113-0.5264 0.0202-1.0632 0.14672-1.3299 0.20962-0.26667 0.0629-1.7481 0.0635-2.3142 0.0695-0.56615 5e-3 -0.95788 0.0177-1.4216-7e-3 -0.46376-0.0241-0.99957-0.084-1.5838-0.22849-0.58421-0.14452-1.2166-0.37369-1.4937-0.55439-0.27705-0.18069-0.19909-0.31317 0.11707-0.56915 0.3162-0.25595 0.87038-0.63541 1.456-1.049 0.58564-0.41361 1.2025-0.86103 1.5067-1.0818 0.30431-0.22076 1.2593-1.4536 1.7156-2.0571 0.4563-0.6035 0.89569-1.1996 1.4348-1.6002 0.53905-0.40052 1.1777-0.60496 1.7893-1.0351 0.61168-0.43012 1.193-1.0818 1.6092-1.678 0.41613-0.59618 0.65969-1.1294 0.91061-1.4773 0.25092-0.34788 0.51961-0.52469 0.78534-0.69934l0.17197-0.64695c0.0907-0.33985 0.18142-0.67936 0.34721-1.1023 0.1658-0.42288 0.40632-0.92863 0.82791-1.4888 0.42161-0.56014 1.0238-1.1749 1.7075-2.012 0.68359-0.8372 1.4484-1.8972 1.9965-2.4362 0.5481-0.53905 0.87964-0.55712 1.3103-0.65349 0.43064-0.0963 0.96088-0.27049 1.4306-0.46023 0.46977-0.18973 0.8787-0.39437 1.3455-0.60517 0.4668-0.21081 0.99074-0.42805 1.4184-0.78944 0.42762-0.36136 0.75955-0.86686 1.0818-1.2734 0.32222-0.40655 0.63528-0.71392 0.88522-1.0572 0.24995-0.34332 0.43615-0.72305 0.64693-1.0212 0.2108-0.29814 0.44562-0.51447 0.68052-0.73129-0.14025-0.35017-0.28033-0.70035-0.52083-0.83283-0.24048-0.13247-0.58072-0.0478-0.93849 0.13105-0.35775 0.17886-0.73269 0.45146-1.2808 0.73373-0.5481 0.2823-1.2697 0.57461-2.0644 0.9385-0.79475 0.36385-1.6804 0.80651-2.383 1.2357-0.7026 0.42922-1.222 0.84498-1.8695 1.375-0.64755 0.52995-1.4482 1.1944-2.0318 1.7778-0.58346 0.58345-0.94939 1.086-1.388 1.5715-0.43867 0.48553-0.95016 0.95368-1.4101 1.4306-0.45996 0.47699-0.86849 0.96294-1.3242 1.5592-0.45568 0.59624-0.95839 1.3031-1.4822 2.0399-0.52381 0.73682-1.0693 1.5031-1.8802 2.3937-0.81086 0.89054-1.8869 1.9052-2.636 2.6172-0.74912 0.71203-1.1707 1.1216-1.5953 1.4912-0.42452 0.36964-0.85222 0.69926-1.0572 0.85739-0.20499 0.15815-2.0177 1.6082-2.876 2.2503-0.85837 0.6421-1.6775 1.2084-2.2798 1.6902-0.60231 0.48184-0.9874 0.87879-1.5355 1.2161-0.54808 0.33727-1.259 0.61446-1.8794 0.79515-0.62036 0.18069-1.1503 0.26494-1.7164 0.3071-0.56614 0.0421-1.1687 0.0421-1.777 0.0843-0.6083 0.0421-1.2227 0.1266-1.8065 0.15069-0.58384 0.0241-1.1373-0.0127-1.4151-0.0303-0.27785-0.0181-1.2146-0.21038-1.5379-0.37097-0.32333-0.16058-0.49804-0.3847-0.57651-0.48561-0.0785-0.10091-0.0365-0.48163 0.11551-0.65431 0.15196-0.17269 0.43729-0.34539 0.57405-0.42829 0.13675-0.0829 1.2713-0.71926 1.5469-0.87381 0.27565-0.1545 1.6591-0.87227 2.573-1.506 0.91396-0.63365 2.0557-1.5446 3.1544-2.3666 1.0987-0.82196 2.1547-1.555 3.5729-2.641 1.4182-1.086 3.1985-2.5254 4.54-3.654 1.3415-1.1286 2.2441-1.9458 2.9809-2.6745 0.73676-0.72877 1.308-1.3688 1.9384-1.9556 0.63036-0.58674 1.3452-1.149 1.967-1.8048 0.62179-0.65586 1.1504-1.4052 1.7394-2.139 0.58898-0.73373 1.2387-1.4512 1.6616-1.908 0.42281-0.45679 0.61827-0.65266 0.71163-0.74603 0.0933-0.0933 0.84273-1.5917 1.162-2.2029 0.31931-0.61123 0.5866-1.0917 0.71655-1.325 0.12994-0.2333 1.0003-1.0435 1.5649-1.542 0.56465-0.4985 1.2636-1.095 1.89-1.619s1.1806-0.97538 1.8311-1.424c0.65047-0.44869 1.397-0.89448 2.162-1.2889 0.76489-0.39452 1.5477-0.73774 2.27-1.1588 0.72233-0.42099 1.3845-0.91936 1.8212-1.442 0.43677-0.52272 0.64874-1.0698 0.99331-1.6043 0.34461-0.53441 0.82182-1.0561 0.89097-1.3586 0.0691-0.30245-0.27011-0.38546-0.76485-0.27025-0.49476 0.11515-1.1449 0.4285-1.669 0.6363-0.52398 0.20779-0.92143 0.31031-1.325 0.32839-0.40354 0.0181-0.81342-0.0482-1.0122-0.21374-0.19877-0.16561-0.18709-0.43051-0.15402-0.78287 0.033-0.35235 0.0872-0.79215 0.18671-1.262 0.0994-0.46977 0.24403-0.96946 0.49216-1.5772 0.24813-0.60772 0.59995-1.3233 0.77223-1.6738 0.17229-0.3505 0.82324-1.7343 1.1268-2.2881 0.30359-0.55374 0.58912-0.97667 0.56013-1.3823-0.029-0.40565-0.37945-0.83447-0.66904-0.9409-0.28958-0.10646-0.52833 0.0974-0.88608 0.28907-0.35773 0.19165-0.83991 0.37276-1.239 0.77961-0.39909 0.40682-0.72686 1.0444-0.88522 1.3528-0.15833 0.30843-0.60463 1.1494-0.79027 1.7295-0.1856 0.58013-0.33914 1.3295-0.52654 2.0833-0.18738 0.7538-0.40852 1.512-0.67396 2.3036-0.26546 0.79163-0.57503 1.6172-0.72554 2.0186-0.15055 0.40138-1.1765 2.077-1.8262 2.8916-0.64969 0.81459-1.4418 1.6152-2.1062 2.2454-0.66439 0.63031-1.2007 1.0902-1.8311 1.6992-0.63032 0.60901-1.354 1.3673-2.0014 2.1381-0.64736 0.77087-1.2183 1.5542-1.691 2.2569-0.47268 0.70275-0.84718 1.3248-1.3667 2.0317-0.51958 0.70698-1.1844 1.4985-1.8785 2.2013-0.69419 0.70272-1.4182 1.3166-2.3978 2.1939-0.9795 0.87733-2.2146 2.0187-2.9939 2.8236s-1.1027 1.2732-1.569 1.7648c-0.46631 0.49154-1.0751 1.0058-1.3734 1.2579-0.29816 0.25198-0.98404 1.0404-1.3823 1.3872-0.39822 0.34678-0.85812 0.65394-1.3905 1.0244-0.53235 0.37051-1.1368 0.80479-1.6009 1.1923-0.46421 0.38755-0.78807 0.72812-1.2693 1.0859-0.48125 0.35775-1.1205 0.73223-1.6443 1.1113-0.52384 0.37905-0.93232 0.76236-1.388 1.0605s-0.95857 0.5113-1.3716 0.65185c-0.41312 0.14055-0.73619 0.2085-0.94913 0.13185-0.21295-0.0767-0.31513-0.29806-0.34066-0.57488-0.0254-0.27684 0.0252-0.609 0.16787-1.433 0.14262-0.8241 0.37733-2.1398 0.5626-3.0512 0.18524-0.91138 0.32132-1.4183 0.4299-1.8761 0.10851-0.4578 0.18957-0.86678 0.20474-1.4175 0.0158-0.55072-0.0354-1.2436 0.0958-1.9572 0.13138-0.71369 0.44441-1.4481 0.72147-2.0202 0.27704-0.57218 0.51811-0.98173 0.79516-1.4094 0.27705-0.42761 0.58998-0.87312 1.0237-1.361 0.43365-0.48786 0.98816-1.0183 1.5543-1.5362 0.56615-0.51797 1.1441-1.0235 1.6108-1.497 0.46671-0.47344 0.82209-0.91482 0.99091-1.1244 0.16877-0.20953 0.60811-0.74637 0.80089-1.0138 0.1928-0.26742 0.36755-0.54421 0.50609-0.76404 0.1385-0.21985 0.24056-0.38277 0.21046-0.5454-0.0302-0.1626-0.19218-0.3253-0.37589-0.43975-0.1837-0.11442-0.38906-0.18084-0.64202-0.22603-0.25297-0.0451-0.5537-0.0689-0.7886-0.0238s-0.40353 0.15925-0.56914 0.21947c-0.16564 0.0602-0.32873 0.0665-0.39799-0.0238-0.0693-0.0903-0.0446-0.27712 0.0426-0.44878 0.0874-0.17165 0.2382-0.32813 0.47006-0.51183 0.23187-0.18368 0.5444-0.39491 1.2611-0.88274 0.71673-0.48782 1.8368-1.2525 2.7433-1.6861 0.90641-0.43364 1.5995-0.53606 2.4789-0.73783 0.8793-0.20175 1.9452-0.50307 3.0504-0.78616 1.1052-0.28308 2.25-0.54744 3.2257-0.86969 0.97572-0.32223 1.7821-0.70166 2.4567-1.0269 0.67457-0.32524 1.2164-0.59691 1.8368-0.81072 0.62038-0.21381 1.3194-0.36999 2.012-0.6109 0.69262-0.24091 1.3788-0.56595 1.9089-0.91224 0.53001-0.34631 0.90375-0.71393 1.3012-1.0482 0.39753-0.33427 0.81959-0.63548 1.1538-0.90649 0.33427-0.27103 0.58071-0.51168 0.7313-0.74356 0.15052-0.23188 0.20514-0.45526 0.24728-0.66003 0.0421-0.20478 0.0719-0.39159 0.0329-0.52411-0.039-0.13248-0.14786-0.21037-0.35868-0.23747-0.2108-0.0272-0.52394-4e-3 -0.76487 0.0753-0.2409 0.0783-0.40886 0.21087-0.51428 0.3464-0.10536 0.13548-0.14753 0.27418-0.28905 0.42173-0.14152 0.14753-0.38244 0.30345-0.56914 0.42994-0.18671 0.12646-0.31948 0.22342-0.46842 0.32674-0.14895 0.10332-0.31454 0.2138-0.39308 0.26614-0.0786 0.0523-0.14785-0.0407-0.11478-0.13185 0.033-0.0911 0.1385-0.22129 0.1867-0.28089 0.0483-0.0596 0.41868-0.56106 0.51347-0.68951 0.0947-0.12852 0.45337-0.45106 0.51508-0.60599 0.0617-0.15498 8.6e-4 -0.29922-0.20308-0.37752-0.20478-0.07833-0.55434-0.09028-0.94587-0.08436-0.39147 6e-3 -0.82506 0.02994-1.2406 0.05407-0.41558 0.02402-0.81336 0.04768-1.1956 0.26614-0.38227 0.21844-0.74921 0.63162-0.92374 0.82793-0.17452 0.19629-1.2703 1.2484-1.5314 1.669-0.26103 0.42049-0.24452 0.7437-0.46596 1.1014-0.22143 0.35773-0.68078 0.74976-1.2259 1.0138-0.54514 0.26406-1.1759 0.4001-2.0276 0.57897-0.85176 0.17888-1.9251 0.40059-2.8195 0.63055-0.89431 0.22997-1.6092 0.46823-2.2225 0.66415-0.61327 0.1959-1.1245 0.34915-1.6526 0.4684-0.5281 0.11937-1.0732 0.20489-1.4224 0.22194-0.34923 0.0172-0.50261-0.0348-0.5282-0.19655-0.0254-0.16185 0.0765-0.43379 0.32346-0.88522 0.24702-0.45142 0.63873-1.0821 1.0261-1.6583 0.38735-0.57623 0.77079-1.0982 1.1374-1.5641 0.36665-0.4659 0.74103-0.90899 1.1113-1.4004 0.37022-0.49134 0.73553-1.031 1.2046-1.4708 0.46906-0.43977 1.0658-0.81476 1.5469-1.1415 0.48112-0.32682 0.84675-0.60502 1.1792-0.78616 0.3325-0.18114 0.65625-0.28397 0.90324-0.47988 0.247-0.1959 0.41747-0.48524 0.48561-0.70672 0.0682-0.22146 0.0341-0.37504-0.0852-0.46022-0.11914-0.08521-0.32372-0.10223-0.99666 0.12773-0.67288 0.22999-1.8141 0.70734-2.7851 1.031-0.97109 0.32366-1.772 0.49406-2.5174 0.96629-0.74532 0.47223-1.4348 1.2461-2.0055 1.8008-0.57064 0.55462-0.99692 0.86171-1.375 1.0932-0.37809 0.23154-0.70835 0.38767-1.0425 0.47824-0.33411 0.0906-0.69162 0.12487-0.8091 0.42256-0.11743 0.29773 4e-3 0.85914-0.0158 1.4306-0.0206 0.57146-0.17407 1.2011-0.48068 1.8655-0.30664 0.66439-0.76648 1.3632-1.1498 1.985-0.3833 0.6218-0.68981 1.1666-0.93686 1.5158-0.24703 0.34924-0.43439 0.50251-0.70262 0.7886-0.26823 0.28612-0.61743 0.70572-0.97529 1.3856-0.35788 0.67988-0.74909 1.6506-1.1154 2.6983-0.36627 1.0476-0.70694 2.1714-1.0588 3.2436-0.35191 1.0723-0.71564 2.0929-1.2554 2.9211-0.53975 0.82812-1.2718 1.5095-1.8426 2.5657-0.57069 1.0562-0.97942 2.4871-1.1711 3.6966s-0.16607 2.1977-0.2555 3.3305c-0.0893 1.1329-0.29445 2.4108-0.60108 3.7523-0.30663 1.3415-0.71483 2.7463-1.2472 3.9218-0.53232 1.1754-1.1885 2.1214-1.5846 2.7262-0.39608 0.60477-0.5324 0.86901-0.89011 1.1416-0.35774 0.27258-0.93687 0.55343-1.6329 0.93352-0.69606 0.38015-1.5088 0.8594-1.9097 1.0957-0.40088 0.23628-2.2434 0.9529-3.0766 1.293-0.83329 0.34014-1.5829 0.66327-2.2856 0.94013-0.44475 0.1752-0.87527 0.32162-1.3094 0.44958 0.48819-0.63792 0.96783-1.3036 1.4863-2.0784 0.76662-1.1457 1.6352-2.4996 2.3355-3.6229 0.70034-1.1232 1.2326-2.0152 1.4928-2.4518 0.2603-0.43664 1.5239-2.6583 2.0817-3.7105 0.55776-1.0522 1.0471-2.0554 1.2865-2.5468 0.2394-0.49138 1.3842-2.9344 1.8-4.0978 0.41573-1.1634 0.67924-2.2788 0.94913-3.1512 0.26987-0.87236 0.54573-1.5019 0.67888-1.8057 0.13312-0.30375 0.5449-1.4691 0.73947-2.2659 0.19458-0.79687 0.38174-1.819 0.61173-2.3854 0.22997-0.56643 0.50293-0.67771 0.7968-0.83529 0.29384-0.15752 0.60891-0.36192 0.78779-0.63876 0.17886-0.27681 0.22126-0.62575 0.42994-1.0261 0.20868-0.40034 0.583-0.85164 1.0515-1.0859 0.46849-0.23423 1.0308-0.2517 1.2906-0.45612 0.25981-0.20443 0.21769-0.59582 0.0517-0.81727-0.16608-0.22146-0.45608-0.27255-0.83937-0.17035-0.3833 0.10223-0.85992 0.35768-1.3455 0.5323-0.48554 0.17461-0.97942 0.26859-1.3627 0.39634-0.38331 0.12773-0.6561 0.28959-0.65185 0.0851 4e-3 -0.20441 0.28526-0.77576 0.53228-1.257 0.24701-0.48125 0.45987-0.87243 0.7665-1.2259 0.30666-0.35348 0.70716-0.66901 1.2055-0.94579 0.49827-0.27684 1.0944-0.51504 1.786-1.4085 0.69167-0.89346 1.4788-2.442 1.8671-3.2061 0.38837-0.76408 1.0737-1.8268 1.4593-2.4158 0.38561-0.58899 0.81984-1.2443 1.1989-2.1046 0.37904-0.86026 0.70255-1.9255 1.1006-2.8015 0.39805-0.87596 0.87038-1.5625 1.1006-1.8974 0.23028-0.33492 1.1041-1.2082 1.3233-1.6575 0.21934-0.4493 0.22765-0.91748 0.22765-1.3561 0-0.43867-9e-3 -0.84769 0.11709-1.1473 0.12551-0.29961 0.38484-0.4899 0.50855-0.5806 0.12376-0.09077 1.1742-1.5841 1.6566-2.2242 0.48242-0.64001 0.92794-1.1823 1.3209-1.6386 0.39297-0.45637 0.73351-0.82682 0.89912-1.0073 0.16566-0.18043 0.52939-0.82326 0.8443-1.3299 0.31492-0.50665 0.76682-1.2049 1.3119-1.9367 0.54508-0.73179 1.1835-1.4971 1.596-2.0964 0.41256-0.59928 0.59904-1.0331 0.92125-1.4216 0.32222-0.38848 0.77968-0.73142 1.126-1.153 0.34632-0.4216 0.58119-0.92159 0.90486-1.4233 0.32371-0.50171 0.73665-1.005 0.9385-1.2513 0.20184-0.24636 0.87304-0.78328 1.0343-0.91224 0.16123-0.129 0.13691-0.65302 0.0181-1.0646-0.11902-0.41156-0.35579-1.0093-0.25142-1.5199 0.10441-0.51066 0.54422-0.94784 0.8877-1.5052 0.34347-0.55729 0.59017-1.2344 0.83693-1.9113l-0.0703-0.95402c-0.27086 0.02012-0.5406 0.04072-1.1186 0.41517-0.57799 0.37448-1.4613 1.1029-1.8966 1.4618-0.4353 0.35892-0.98353 1.4322-1.3528 2.0759-0.36929 0.6437-0.83735 1.4016-1.3143 2.3216-0.47699 0.91988-0.96285 2.0015-1.3717 2.849-0.40885 0.84751-0.74093 1.4608-1.0646 1.972-0.32366 0.51107-0.63903 0.92031-0.84346 1.0736-0.20444 0.1534-0.2979 0.0507-0.40864-0.22192-0.11081-0.27256-0.23844-0.71573-0.10477-1.3709 0.13359-0.65514 0.52877-1.5218 0.72146-1.9449 0.1927-0.4231 0.8606-1.6396 1.085-2.4198 0.22444-0.78028 0.34515-1.7425 0.40371-2.211 0.0587-0.46861 0.47313-2.179 0.57242-2.5886 0.0993-0.40956 0.83485-2.0521 1.1825-2.8023 0.34763-0.75027 0.67949-1.4401 0.87544-1.917 0.1959-0.47699 0.25535-0.74109 0.13185-0.84757-0.12344-0.10649-0.42944-0.05609-0.71491-0.02614-0.28549 0.02978-0.5504 0.03835-0.68215 0.04264-0.13168 0.0047 0.22195-0.44969 0.53065-0.67806s0.74339-0.45061 1.0818-0.75176c0.33839-0.30115 0.58069-0.6818 0.69608-0.86309 0.1154-0.18132 0.20146-0.9053 0.1073-1.4036-0.0941-0.49835-0.32417-1.1453-0.45776-1.5109-0.1336-0.36555-0.17121-0.44948-0.18509-0.4807-0.0143-0.03123-0.11732-0.70346-0.10802-1.0826 0.01-0.37914 0.078-0.81394 0.16869-1.1882 0.0908-0.37429 0.20367-0.68869 0.25632-0.83446 0.0526-0.14579-0.0333-1.3293-0.0499-1.768-0.0168-0.43867-9e-3 -0.73681-0.0163-0.9753-9e-3 -0.23849-0.0341-0.41765-0.19161-0.5241-0.15753-0.10649-0.44694-0.14056-0.72802-0.12773-0.28108 0.01268-0.55422 0.07226-0.66496 0.11061-0.1108 0.03835-0.0593 0.05545-0.2211 0.16624-0.16184 0.11077-0.53666 0.3154-0.93274 0.71573-0.39608 0.40034-0.81362 0.99648-1.1203 1.6992-0.30664 0.70271-0.50263 1.512-0.61336 2.2274-0.1108 0.71549-0.13645 1.3369-0.18753 1.9203-0.051 0.58347-0.12757 1.1289-0.19 1.4413-0.0624 0.31235-0.1102 0.3921-0.27269 0.51019-0.16259 0.11806-0.44012 0.27412-0.68705 0.53311-0.24695 0.25899-0.46359 0.62045-0.52984 0.99992-0.0662 0.37946 0.0182 0.77695 0.13264 0.93352 0.11442 0.15657 0.25932 0.07258 0.53638 0.24732 0.27706 0.17465 0.68591 0.60804 0.89672 1.2103 0.21081 0.60229 0.22345 1.3736 0.0729 2.3011-0.15055 0.92751-0.46419 2.0114-0.68705 3.0595-0.22286 1.048-0.35553 2.06-0.58962 3.1348-0.23408 1.0748-0.56966 2.2125-0.76732 3.1519-0.19764 0.93944-0.25679 1.68-0.35047 2.1357-0.0937 0.4557-0.22159 0.62599-0.35788 0.57488-0.13629-0.05106-0.28103-0.32345-0.44712-0.47251-0.16611-0.14912-0.35359-0.17479-0.57078 0.04675-0.2172 0.22146-0.46399 0.68992-0.53639 1.3799-0.0724 0.68992 0.0297 1.6014 0.0467 2.3339 0.0172 0.73251-0.0511 1.2864-0.16625 1.8188-0.11502 0.53236-0.27642 1.043-0.62564 1.8138-0.34922 0.77086-0.88582 1.8015-1.316 2.3978-0.43014 0.59624-0.75387 0.75848-0.9753 0.62646-0.22146-0.13201-0.34065-0.55778-0.44712-1.0007-0.10646-0.44293-0.20033-0.90341-0.14501-1.3037 0.0553-0.40034 0.25933-0.74051 0.63712-0.99992 0.37778-0.25941 0.9294-0.43796 1.2087-0.5282 0.27933-0.09028 0.83352-1.8214 0.97778-2.2717 0.14421-0.45026-0.17604-1.142-0.34967-1.1293-0.17364 0.01268-0.35526 0.39442-0.44139 0.57488-0.086 0.18047-0.89122 1.1223-1.3193 1.5543-0.42805 0.43194-0.88831 0.83231-1.1907 0.99417-0.30236 0.16184-0.44659 0.0857-0.65101-0.0974-0.20444-0.18314-0.46873-0.4733-0.63056-0.87784-0.16185-0.40459-0.22145-0.92382-0.12773-1.7926 0.0937-0.86884 0.34087-2.0869 0.49871-3.2241 0.15784-1.1371 0.22609-2.1928 0.25961-2.7082 0.0336-0.51536 0.51518-3.1807 0.6322-3.8284 0.11695-0.64776-0.0375-1.8827-0.12694-2.6025-0.0893-0.71975-0.19234-1.555-0.2424-1.9596-0.0501-0.40473-0.30766-1.5368-0.4856-2.1332-0.17796-0.59644-0.40749-1.2352-0.52249-1.3119-0.11502-0.07671-0.11587 0.40907-0.17112 0.7796-0.0553 0.37052-0.16609 0.6256-0.28745 0.68296-0.1214 0.05736-0.25319-0.08304-0.31283-0.14658-0.0597-0.06355-0.14564-1.0093-0.28579-1.465-0.14008-0.45574-0.37811-0.90744-0.7108-1.1588-0.33272-0.25134-0.76012-0.30214-0.97204-0.32757-0.21193-0.02552-0.0426 0.81789 0.14247 1.4946 0.18516 0.67662 0.46867 1.596 0.60682 2.044 0.1382 0.44793 0.17205 1.6998 0.14326 2.5976-0.0287 0.89783-0.10283 2.0804-0.14088 2.6844-0.0378 0.60397-0.277 1.8796-0.22357 2.7106 0.0534 0.831 0.28219 1.8425 0.30628 2.8784 0.0241 1.0359-0.15658 2.0967-0.45777 3.0242-0.30116 0.92751-0.72331 1.7222-0.96466 2.5353-0.24137 0.81306-0.30243 1.644-0.33166 2.0415-0.0293 0.39759 0.48132 1.5884 0.77632 2.3052 0.29502 0.71682 0.63641 1.5706 0.80089 1.9817 0.1645 0.41123 0.77921 2.0081 0.92374 2.3838 0.14452 0.37576 0.2157 3.2478 8.6e-4 4.3943-0.21406 1.1465-0.6776 2.0216-0.90409 2.4494-0.22647 0.42775-1.7034 2.5401-2.0637 3.0553-0.36026 0.51527-1.1385 1.657-1.3242 1.9293-0.1857 0.27237-1.2287 1.9651-1.6484 2.5369-0.41974 0.57186-0.74323 0.87887-0.94339 0.70425-0.20015-0.17459-0.27709-0.83029-0.37505-1.4052-0.0979-0.57493-0.21749-1.0691-0.24731-1.6738-0.0298-0.60475 0.03-1.3207 0.0557-2.0064 0.0254-0.68568 0.0172-1.3412 0.0983-1.8778 0.081-0.5366 0.25074-0.95428 0.37423-1.393 0.12346-0.43866 0.20017-0.89826 0.10646-1.3029-0.0937-0.40461-0.35701-0.75387-0.56995-0.91147-0.21294-0.15751-0.37504-0.12392-0.5241 0.0974-0.14911 0.22146-0.28563 0.63067-0.43894 0.98842-0.15341 0.35775-0.3238 0.66414-0.44383 0.63876-0.11997-0.02534-0.18947-0.38226-0.22195-0.54867-0.0325-0.16642-0.4436-1.6907-0.43401-2.3298 0.01-0.63912 0.23107-1.1672 0.50364-1.6911 0.27255-0.52383 0.59627-1.0436 1.0605-1.5674 0.4642-0.52384 1.0692-1.0516 1.5633-1.4732 0.49405-0.42164 0.87716-0.73697 1.235-1.1628 0.35774-0.42588 0.68966-0.96286 0.79188-1.3717 0.10223-0.40885-0.0253-0.68966-0.32347-0.81317-0.29812-0.12345-0.76675-0.08968-1.3332 0.11056-0.56644 0.20016-1.2306 0.56645-1.8311 1.103-0.6005 0.5366-1.1376 1.2433-1.6657 2.0653-0.52809 0.82194-1.0477 1.7591-1.3372 2.0104-0.2896 0.25128-0.34853-0.18333-0.39962-0.97118-0.0511-0.78789-0.0941-1.9292-0.01-2.8449 0.0852-0.91568 0.29836-1.6055 0.56668-2.2315 0.26831-0.62604 0.59188-1.1879 0.76651-1.75 0.17461-0.56216 0.20016-1.1243 0-1.4438-0.20017-0.31943-0.62624-0.39602-1.1203-0.40453-0.49404-0.0084-1.0557 0.05082-1.4773 0.55766-0.42163 0.5068-0.70272 1.4607-0.84757 2.3167-0.14485 0.85603-0.15388 1.6138-0.15799 1.9801-4e-3 0.36629 0.20159 2.1804 0.31691 2.9555 0.11539 0.77501 0.24481 1.4305 0.30709 1.7459 0.0623 0.31547 0.62685 1.8398 0.84266 2.5984 0.21581 0.75858 0.36903 1.5248 0.49706 2.6918 0.12806 1.1669 0.23116 2.734 0.28171 3.5049 0.0506 0.77089-0.0178 2.5003-0.0262 3.5565-9e-3 1.0562 0.01 2.3168 0.077 3.7563 0.0678 1.4395 0.18662 3.1088 0.18589 4.6334-7.4e-4 1.5246-0.12154 2.904-0.46923 4.3606-0.34775 1.4566-0.92682 3.0409-1.2505 4.0716-0.32367 1.0307-0.39161 1.5074-0.55603 2.1283-0.16445 0.62088-0.4251 1.3859-0.82875 1.9072-0.40363 0.52137-0.9656 0.84527-1.4806 1.3537-0.51501 0.50841-0.98285 1.2013-1.3667 1.8114-0.3839 0.61009-0.70815 1.1721-1.0318 1.8876-0.32368 0.71549-0.64675 1.584-0.88522 2.3847-0.2385 0.80067-0.39206 1.5338-0.67314 2.2577-0.28109 0.724-0.69047 1.4396-1.0482 1.908-0.35776 0.46846-0.66429 0.68951-0.89423 0.68951-0.22995 0-0.38306-0.22122-0.66414-0.5364-0.28108-0.31513-0.69014-0.7245-1.0138-1.2185-0.32369-0.49403-0.56225-1.0731-0.7837-1.4904-0.22147-0.41737-0.42563-0.67263-0.74931-0.70671-0.32367-0.0341-0.76628 0.15355-1.09 0.41765-0.32368 0.26404-0.52818 0.60412-0.65593 1.0981-0.12774 0.49403-0.17938 1.1415 0.0204 1.8032 0.19984 0.66177 0.65066 1.3379 1.0261 1.9138 0.37544 0.57591 0.69967 1.0872 0.80908 1.6746 0.10947 0.58752 4e-3 1.2516-0.38487 2.1464-0.38919 0.89475-1.0709 2.0701-1.7778 3.007-0.70697 0.93695-1.4389 1.6351-2.0948 2.3421-0.65588 0.70698-1.2355 1.4227-1.9851 1.9253-0.74954 0.50254-1.6696 0.79231-2.6066 1.2693-0.93695 0.47701-1.8909 1.1413-3.1429 1.7632-1.2521 0.6218-2.8021 1.201-4.5032 1.7794-1.7011 0.57845-3.5532 1.1562-4.9634 1.6517-1.4102 0.49552-2.3644 0.90366-3.2076 1.2955-0.84327 0.3918-1.5757 0.76726-2.2315 1.1506-0.65588 0.38328-1.2345 0.77464-1.7967 1.1154-0.4197 0.25437-0.7358 0.42056-1.0302 0.57896 0.0846-0.17564 0.19292-0.37913 0.26042-0.52165 0.59242-1.2508 1.1076-2.396 1.542-3.3756 0.43442-0.9795 0.78809-1.7935 1.1203-2.3535 0.33219-0.56003 0.64312-0.86678 1.0286-1.5355 0.38543-0.66865 0.84535-1.6991 1.2423-2.5419 0.39694-0.84281 0.7307-1.4972 0.89509-1.8196 0.16436-0.32242 0.60108-1.1778 0.79189-1.5764 0.19077-0.39865 0.35651-0.77377 0.54865-1.4061 0.19215-0.63232 0.41075-1.5224 0.51837-1.9613 0.10766-0.43888 0.67104-1.8562 1.0515-2.5656 0.38043-0.70938 0.86171-1.4246 1.3643-2.0678 0.50254-0.64308 1.026-1.2138 1.4806-1.6919 0.45463-0.47807 0.83984-0.86361 1.0293-1.0531 0.18955-0.18951 1.2652-1.0941 1.854-1.5723 0.58881-0.47823 1.2319-0.98473 1.7664-1.4085 0.53448-0.42375 0.96054-0.76449 1.3757-1.0498 0.41524-0.28535 0.81985-0.51571 1.316-0.78615 0.49614-0.27044 1.0833-0.58075 1.5625-0.87458 0.47911-0.29385 0.85029-0.57125 1.3209-0.77143 0.4706-0.20016 1.0406-0.32311 1.5772-0.53392 0.53668-0.21081 1.0396-0.50916 1.5272-0.80089 0.48764-0.29174 0.96055-0.57714 1.3758-0.80497 0.41525-0.22787 0.77298-0.39816 1.284-0.61748 0.51106-0.21933 1.1751-0.48753 1.7394-0.74521 0.5643-0.25766 1.0285-0.50457 1.6247-0.69196 0.59623-0.18739 1.3246-0.31545 1.8974-0.36441 0.57283-0.049 0.99023-0.0191 1.465-0.0142 0.47486 4e-3 1.0072-0.0168 1.3799-0.0892s0.58567-0.19603 0.68788-0.38979c0.10224-0.19378 0.0932-0.45825 0.0762-0.66906-0.0172-0.21081-0.0419-0.36833-0.21864-0.44712-0.17673-0.0787-0.50522-0.0784-0.83529-0.17853-0.33005-0.10018-0.6618-0.30083-0.9131-0.49461-0.25127-0.19379-0.42186-0.38081-0.56423-0.5757-0.1423-0.19487-0.257-0.39739-0.30873-0.48889-0.0516-0.0914-0.36128-0.86498-0.45777-1.1423-0.0964-0.27743-0.1385-0.4563-0.17688-0.68626-0.0384-0.22998-0.0729-0.511-0.10319-0.7878-0.0304-0.27677-0.0558-0.54954-0.0679-0.67314-0.0127-0.12359 0.60313-0.29444 0.83201-0.35375 0.2289-0.0593 0.38223-0.0932 0.59945-0.0974 0.21721-4e-3 0.49818 0.0208 0.83037-0.0344 0.3322-0.0553 0.71574-0.19156 1.1006-0.34559 0.38489-0.15402 0.77127-0.32566 0.95977-0.40944 0.1885-0.0839 1.1973-0.73413 1.5404-1.1162 0.34303-0.38203 0.53079-0.82443 0.71817-1.0842 0.1874-0.25979 0.37443-0.3366 0.55524-0.51428 0.18079-0.17768 0.35512-0.45619 0.43646-0.58635 0.0814-0.13011 0.38166-0.69503 0.44878-0.82135 0.067-0.12631 0.23907-0.73055 0.25795-0.94339 0.0189-0.21283-0.0254-0.34832-0.0442-0.40453-0.0188-0.0562-0.22659-0.60938-0.2465-0.89096-0.02-0.28162 0.0402-0.57927 0.14245-0.8902 0.10224-0.31091 0.24698-0.6351 0.31939-1.0056 0.0724-0.37052 0.0723-0.78708 0.0253-1.2939-0.0469-0.5068-0.14041-1.1031-0.28089-1.759-0.14057-0.65586-0.32845-1.3712-0.47825-2.044-0.14974-0.67278-0.26137-1.3033-0.31527-1.6059-0.0538-0.30265-0.28527-0.80025-0.33576-0.90898-0.0506-0.10875-0.30272 0.3784-0.37259 0.6756-0.0699 0.29723-0.0784 0.63756-0.18919 1.0081-0.1108 0.37051-0.32327 0.77102-0.49788 1.2055-0.17462 0.43439-0.31168 0.90298-0.36279 1.4822-0.0511 0.5792-0.0161 1.2688 0.0647 1.9203 0.081 0.65161 0.20845 1.2652 0.22438 1.7418 0.0158 0.47667-0.0799 0.81711-0.12456 0.9753-0.0446 0.15815-0.3389 0.43413-0.50036 0.67395-0.16146 0.23984-0.34398 0.58727-0.42992 0.75095-0.0859 0.16368-0.24038 0.95582-0.34723 1.3815-0.10681 0.42569-0.24535 0.8932-0.31118 1.1154-0.0658 0.22216-0.39245 0.32534-0.58715 0.3292-0.19468 3e-3 -0.42416-0.0385-0.67969-0.0172s-0.53652 0.1067-0.85167 0.2727c-0.31516 0.16609-0.66478 0.41236-0.90324 0.67642-0.2385 0.26405-0.36586 0.54567-0.58305 0.7927-0.21721 0.24701-0.52441 0.46007-0.77141 0.44304-0.24702-0.0172-0.43395-0.26465-0.5888-0.5323-0.15483-0.26766-0.27754-0.55536-0.3341-0.6887-0.0566-0.13327-0.4169-1.1119-0.51347-1.5297-0.0966-0.41787-0.11394-0.77595-0.1736-1.1678-0.0597-0.39182-0.16134-0.81787-0.16134-1.2693 0-0.45144 0.10223-0.92854 0.10645-1.4609 4e-3 -0.53235-0.0894-1.1196-0.19161-1.5411-0.10223-0.42164-0.21334-0.67766-0.38981-0.87459-0.17643-0.19694-0.41834-0.3352-0.53392-0.40125-0.11551-0.0661-0.40292 9.4e-4 -0.48479 0.14245-0.0819 0.14073-0.0991 0.3883-0.0991 0.66087 0 0.27256 0.0173 0.57007 0.0385 0.9065 0.0213 0.33644 0.0462 0.71136 0.14579 1.1153 0.0993 0.40401 0.27316 0.83769 0.3554 1.0433 0.0823 0.20559 0.11611 1.0655-0.15228 1.2529-0.26847 0.18739-0.82214 0.14484-1.1842-0.0212-0.36199-0.16611-0.53242-0.45579-0.71981-0.69854s-0.39143-0.43892-0.64696-0.5454c-0.25552-0.10646-0.56239-0.12296-0.75829 0.0303-0.19592 0.15339-0.28055 0.47704-0.33166 0.89011-0.0512 0.41311-0.0683 0.91585 0.0892 1.3119 0.15751 0.39607 0.48932 0.68542 0.77468 0.87707 0.28535 0.19166 0.52374 0.28481 0.80908 0.35296 0.28534 0.0682 0.61788 0.11105 0.8361 0.33656 0.21823 0.22546 0.32273 0.63412 0.37179 0.82629 0.0491 0.19217 0.2721 1.4606 0.45449 2.1464 0.18241 0.68582 0.43712 1.4358 0.54785 2.0235 0.11081 0.58772 0.0767 1.0133-0.12771 1.4306-0.20443 0.41735-0.57892 0.82604-1.0048 1.3201-0.42588 0.49402-0.90289 1.0734-1.3799 1.3545-0.47699 0.28109-0.95402 0.2637-1.1669 0.17852-0.21296-0.0852-0.16168-0.23791 0.0172-0.58715 0.17888-0.34922 0.48508-0.89431 0.77468-1.465 0.2896-0.57068 0.56225-1.1672 0.74111-1.6272 0.17887-0.45995 0.26437-0.78369 0.0344-0.78369-0.22997-2e-5 -0.77493 0.32359-1.2775 0.7239-0.50256 0.40034-0.96302 0.87785-1.474 1.3889-0.51102 0.51103-1.0727 1.056-1.5412 1.6182-0.46846 0.56218-0.84358 1.1415-1.2865 1.6526-0.44293 0.51105-0.95351 0.95368-1.456 1.3455-0.50255 0.39182-0.99656 0.73239-1.5928 1.022-0.59624 0.2896-1.2948 0.52816-1.9506 0.7837-0.65587 0.25553-1.2694 0.528-1.7123 0.89423-0.44293 0.36627-0.71552 0.82688-1.0818 1.2783-0.36625 0.45144-0.82573 0.89389-1.2431 1.4986-0.41736 0.60476-0.79217 1.3715-1.1669 1.8655-0.37477 0.49403-0.75009 0.71574-0.92048 0.63055-0.17039-0.0852-0.13629-0.47745-6e-3 -0.9704 0.13057-0.49293 0.35779-1.0868 0.58633-2.0473 0.22856-0.96036 0.4756-2.3313 0.67152-3.2682 0.1959-0.93695 0.34113-1.4399 0.41354-1.9637 0.0724-0.52383 0.0723-1.0685 0.10236-1.7115 0.03-0.64307 0.0905-1.3841 0.11961-1.7418 0.0293-0.35782 0.36735-2.0115 0.46268-2.6475 0.0953-0.63605 0.11948-1.0933 0.15562-1.7198 0.0361-0.62637 0.0843-1.4218 0.22274-1.994 0.1385-0.57219 0.36766-0.9215 0.65675-1.3069 0.28912-0.38548 0.63808-0.80708 1.0597-1.3069 0.42161-0.49991 0.91551-1.0779 1.4757-1.6501 0.56012-0.57218 1.1865-1.1386 1.6804-1.5723 0.49387-0.43364 0.85488-0.73465 1.3692-1.049 0.51432-0.31436 1.182-0.64143 1.5084-0.8017 0.32648-0.1603 0.91096-0.86652 1.5404-1.1219 0.62945-0.25541 1.605-0.42414 2.3699-0.62893 0.76492-0.20478 1.3187-0.44514 1.8729-0.65594 0.55411-0.21081 1.1084-0.39178 1.7951-0.55439s1.5052-0.30701 2.1496-0.61419c0.64444-0.30716 1.1143-0.7771 1.578-1.2529 0.46378-0.47579 0.92186-0.95763 1.1571-1.307 0.23527-0.34931 0.24774-0.56637 0.25304-0.65676 4e-3 -0.0903-0.48126-0.96629-0.6895-1.2448-0.20827-0.27848-0.38905-0.41122-0.7444-0.4594-0.35534-0.0482-0.88556-0.0127-1.3373 0.0844-0.45171 0.0963-0.82468 0.25269-0.99331 0.27679-0.16865 0.0241-0.13312-0.0845-0.19328-0.25304-0.0602-0.16864-0.21657-0.39733-0.4635-0.34312-0.24694 0.0542-0.58412 0.39132-0.96955 0.71655-0.38546 0.32523-0.81915 0.63905-1.2046 1.0064-0.38547 0.36739-0.72284 0.78843-1.0269 1.1039-0.30406 0.31544-0.57513 0.52529-0.7018 0.62318-0.12662 0.0979-0.70474 0.12155-0.90324 0.031-0.1985-0.0903-0.30707-0.28292-0.59617-0.42746-0.28909-0.14452-0.75894-0.24068-1.1022-0.17444-0.34331 0.0663-0.56015 0.29461-0.83118 0.55359-0.27103 0.259-0.59667 0.54801-0.89183 0.68052-0.29512 0.13248-0.55953 0.10899-0.86068 0.17524-0.30115 0.0663-0.63898 0.22275-0.88281 0.40126-0.2438 0.17852-0.39373 0.37895-0.46022 0.4676-0.0666 0.0887-0.55446 0.77073-0.7624 0.96551-0.20797 0.19477-0.38839 0.25528-0.50282 0.14088-0.11442-0.11442-0.16271-0.40314-0.16213-0.80662 5.7e-4 -0.40349 0.0499-0.92185 0.0729-1.1628 0.0229-0.24103 0.1201-1.4571 0.16787-1.9269 0.0477-0.46983 0.0958-0.81969 0.28253-1.2955 0.18671-0.4758 0.51233-1.0777 0.82219-1.6182 0.30985-0.5404 0.60439-1.0194 0.74357-1.2455 0.13912-0.22616 0.77828-1.8229 0.92863-2.1988 0.15038-0.37591 0.75712-1.4455 1.0196-1.8385 0.26242-0.39296 0.49199-0.65782 0.83529-1.0433 0.3433-0.38546 0.80027-0.89123 1.2038-1.361 0.40354-0.4698 0.75303-0.90349 1.2529-1.2709 0.4999-0.36739 1.1502-0.66842 1.9212-0.96955 0.77092-0.30114 1.663-0.60205 2.3797-0.92125 0.71674-0.31921 1.2583-0.65627 1.8426-0.92125 0.58421-0.26501 1.211-0.45789 1.9097-0.6928 0.69865-0.23489 1.4695-0.51176 1.9875-0.71655 0.518-0.20476 0.78262-0.33751 0.7796-0.5331-3e-3 -0.19562-0.27394-0.45414-0.40042-0.57488-0.12647-0.12076-0.61441-0.63355-1.0089-0.87132-0.39449-0.23775-0.94853-0.46643-1.4183-0.49051-0.46979-0.02414-0.85544 0.15719-1.2529 0.37997-0.39752 0.22285-0.80654 0.48784-1.4004 0.82382-0.59379 0.33601-1.3724 0.74257-1.7688 0.9499-0.39642 0.20734-1.2586 0.71056-1.7009 0.83857-0.4423 0.12804-0.88797 0.12804-1.1711-0.0647-0.28309-0.19273-0.40295-0.5788-0.38489-0.92211 0.0181-0.3433 0.17461-0.64454 0.39143-0.99992 0.21684-0.35535 0.49391-0.76464 0.67887-1.1145 0.18498-0.3499 0.27753-0.64022 0.3292-0.80173 0.0517-0.16149 0.84061-1.1893 1.1145-1.7713 0.27394-0.582 0.41908-1.2204 0.67805-1.8106 0.25898-0.59025 0.6321-1.1326 1.0417-1.6747 0.40956-0.54205 0.8552-1.084 1.325-1.4454 0.46978-0.36137 0.96397-0.54201 1.1988-0.76485 0.23491-0.22285 0.21039-0.48837 0.33984-0.78697 0.12948-0.29862 0.41281-0.63052 0.5454-0.78616 0.13265-0.15562 0.64421-0.83779 0.97855-1.2013 0.33441-0.36354 0.75608-0.76135 1.2439-1.1228 0.48784-0.36137 1.0416-0.68678 1.6018-0.96389 0.56012-0.27705 1.1267-0.50563 1.741-0.75257 0.61434-0.24694 1.2764-0.51171 1.6558-0.73456 0.37943-0.22285 0.47578-0.40385 0.47578-0.63875 0-0.23488-0.0964-0.52388-0.23502-0.78286-0.1385-0.25899-0.31869-0.48809-0.7403-0.57242-0.4216-0.08431-1.0842-0.02361-1.8491 0.02456-0.76491 0.04817-1.6322 0.08399-2.2586 0.19244-0.62637 0.10839-1.0121 0.28917-1.1932 0.16869-0.18102-0.12043-0.15767-0.54175-0.14501-0.77059 0.0127-0.22884 0.76482-1.7327 0.94913-2.1013 0.18432-0.36861 1.1288-2.1126 1.6141-2.9391s0.99082-1.6216 1.4937-2.342c0.5028-0.7205 1.0028-1.3663 1.2439-1.678 0.24111-0.31169 1.1868-1.5475 1.4789-2.0015 0.29222-0.45393 0.41286-0.7555 0.46104-0.96629 0.0482-0.21079 0.0238-0.3307-0.0573-0.43484-0.081-0.10412-0.21926-0.19224-0.28006-0.23094-0.0609-0.03866-0.71115-0.03835-1.0605 0.0095-0.34933 0.04817-0.72251 0.14405-1.108 0.28254-0.38547 0.1385-0.78269 0.3194-0.93926 0.217-0.15657-0.10238-0.0727-0.48781-0.0425-0.95153 0.0302-0.46372 7e-3 -1.0059 0.19899-1.6624 0.19275-0.6565 0.60248-1.4274 0.87956-2.1742 0.27704-0.74685 0.4214-1.4695 0.44548-2.0718 0.0241-0.60229-0.0721-1.0844-0.32511-1.3012-0.25295-0.21683-0.66266-0.16865-0.9819 0-0.31921 0.16864-0.54803 0.45822-0.82136 0.94501-0.27333 0.48678-0.59157 1.1712-0.74356 1.4986-0.15198 0.32738-0.15151-0.64871-0.15151-0.88359 0-0.2349-5.4e-4 -0.99391-0.19327-1.2529s-0.57752-0.41511-1.0654-0.34886c-0.48786 0.06624-1.0786 0.35519-1.5182 0.61417-0.43969 0.259-0.72839 0.4876-0.78862 1.0237-0.0602 0.53604 0.10827 1.3798 0.13834 2.2651 0.03 0.88539-0.0786 1.8124-0.0967 2.523-0.0181 0.71072 0.0546 1.2052 0.145 1.7533 0.0903 0.54809 0.19858 1.1503 0.29564 1.8188 0.0972 0.66845 0.18278 1.4029 0.22355 1.7524 0.0407 0.3495-0.20243 1.469-0.29153 1.6861-0.0891 0.21711-0.14912 0.10855-0.19735-0.22274-0.0481-0.33126-0.085-0.88548-0.1393-1.4577-0.0542-0.57218-0.12599-1.1622-0.2645-1.6681-0.1385-0.50593-0.34364-0.92734-0.66414-1.1866-0.32049-0.25927-0.75612-0.35611-0.97041-0.40373-0.21429-0.04754-0.98464 0.02393-1.2767 0.24567-0.29203 0.22176-0.48897 0.62909-0.5806 0.81809-0.0916 0.189-0.0437 1.5265 0.13677 2.2733 0.18046 0.74685 0.51805 1.5902 0.81317 2.4576 0.29512 0.86729 0.54824 1.7583 0.6625 2.5894 0.1143 0.83115 0.0893 1.602 0.0779 1.9695-0.0109 0.36741 0.0637 1.2711 0.0802 1.4699 0.0166 0.19888-0.75862 2.1118-1.1842 2.998-0.42553 0.88625-0.89509 1.7175-1.4372 2.374-0.54205 0.6565-1.1562 1.1385-1.5477 1.2349-0.39149 0.09635-0.56018-0.19284-0.5421-0.5241 0.0181-0.33126 0.22237-0.70482 0.34884-1.1686 0.12646-0.46376 0.17513-1.0177 0.21783-1.4994 0.0425-0.48179 0.0798-0.89088 0.0967-1.0777 0.0169-0.1868 0.0417-1.452 0.0109-2.1627-0.0304-0.71072-0.10236-1.5177-0.3071-2.2586-0.20477-0.74081-0.5424-1.4151-0.64283-1.9383-0.10042-0.52327 0.036-0.89534 0.0982-1.0654 0.0623-0.17007 0.47696-0.99897 0.57077-1.4519 0.0938-0.45292 0.0811-0.95908 0.0753-1.194-7e-3 -0.23492-1.2393-2.122-1.5919-2.7622-0.3526-0.64024-0.44951-0.98979-0.56998-1.4536-0.12045-0.46376-0.26464-1.0418-0.31281-1.6501-0.0482-0.60831-1e-4 -1.2469 0.036-1.9997 0.0361-0.75285 0.0598-1.6198-0.0246-2.451-0.0842-0.83117-0.27644-1.6267-0.53229-2.2389-0.25584-0.61221-0.57471-1.0417-0.72555-1.2447-0.15086-0.20304-0.61456-0.66649-0.86146-0.64857-0.24694 0.01792-0.51799 0.27644-0.64448 0.39717-0.12645 0.12073-0.57853-0.18809-0.70181-0.46105-0.12328-0.27295-0.13597-0.65901-0.15386-1.1047-0.0181-0.4457-0.042-0.95153-0.18918-1.4258-0.14721-0.47417-0.41742-0.91628-0.54456-1.1244-0.1271-0.20806-0.77705-0.15975-1.1268-0.05732-0.34977 0.10243-0.72305 0.28291-0.98353 0.65594-0.26046 0.37304-0.4081 0.93798-0.47744 1.2038-0.0692 0.26578-0.70173 0.97178-0.8492 1.4683-0.14753 0.49656-0.13518 1.1464-0.12931 1.4536 7e-3 0.30717-0.7222 1.4729-0.82791 2.0588-0.10574 0.58592 0.0385 1.1882 0.39388 1.7664 0.35535 0.5782 0.92202 1.1319 1.4159 1.6558 0.49388 0.524 0.91559 1.018 1.1866 1.6443 0.27104 0.62639 0.39096 1.3855 0.46925 2.1505 0.0783 0.76492 0.11455 1.5356 0.01 2.1669-0.10475 0.63121-0.35032 1.1224-0.46594 1.3537-0.11563 0.23127 0.0329 1.6165 0.0673 1.9359 0.0342 0.3194 1.6766 1.0438 2.2405 1.5969 0.56393 0.55312 0.87682 1.3004 1.0335 2.1496 0.15656 0.84923 0.15672 1.8007 0.25303 2.668 0.0963 0.86729 0.28887 1.65 0.53313 2.6598 0.24424 1.0099 0.54065 2.2472 0.71408 3.3084s0.22404 1.947 0.22356 2.8498c-4.7e-4 0.90281-0.0522 1.8223-0.2473 2.623-0.19495 0.8007-0.53519 1.5331-0.88445 2.1464-0.34923 0.61326-0.70732 1.1079-1.031 1.1506-0.32367 0.0426-0.61363-0.36641-0.8902-0.76403-0.27652-0.39764-0.53953-0.7838-0.71899-1.2406-0.17945-0.45685-0.29904-1.0191-0.35868-1.411-0.0597-0.39182-0.0589-0.61366 0.15799-0.88934 0.21704-0.27569 0.65068-0.60546 0.99168-1.1358 0.34103-0.53038 0.61328-1.2799 0.75833-1.9613 0.14499-0.68141 0.16264-1.2948 0.077-1.8655-0.0857-0.57071-0.27282-1.1499-0.58798-1.5076-0.31518-0.35774-0.75827-0.49383-1.0564-0.11061-0.2981 0.38331-0.45098 1.2858-0.5544 1.9244-0.10343 0.63866-0.15688 1.0132-0.46103 1.6353-0.30426 0.62214-0.86703 1.5418-1.3184 1.9506-0.45146 0.40886-0.79216 0.30721-1.0433 0.19327-0.25115-0.11394-0.41198-0.24011-0.53149-0.4807-0.11948-0.24059-0.22223-0.61495-0.2989-0.95565-0.0768-0.34071-0.12756-0.64722-0.19571-0.93678-0.0682-0.2896-0.1534-0.56239-0.27269-0.88608-0.11914-0.32367-0.27284-0.69864-0.36688-1.3119-0.094-0.61326-0.12883-1.4644-0.11961-2.2651 0.01-0.8007 0.0605-1.6017 0.0605-2.198 0-0.59624-0.0507-0.98791-0.26369-1.022-0.21294-0.03407-0.58833 0.28927-0.79352 0.64695-0.2052 0.35766-0.24049 0.74992-0.30709 1.2611-0.0666 0.5112-0.16886 1.1924-0.22848 1.7205-0.0597 0.5281-0.0763 0.90238-0.2211 1.1579-0.14485 0.25553-0.41779 0.39226-0.69035 0.34968-0.27256-0.04264-0.54468-0.26448-0.90246-0.47743-0.35774-0.21294-0.80084-0.41747-1.1841-0.40043-0.38332 0.01711-0.70703 0.25612-0.86884 0.57979-0.16183 0.32367-0.16232 0.73236-0.0941 1.2775 0.0682 0.54513 0.20488 1.2263 0.47743 1.7034 0.27256 0.47699 0.68145 0.75007 1.1669 1.0056 0.48552 0.25555 1.0474 0.49394 1.5584 0.76651 0.51105 0.27257 0.971 0.57925 1.4224 0.95402 0.45142 0.37478 0.89414 0.81768 1.4478 1.465 0.55364 0.64734 1.2185 1.4985 1.7295 2.2651 0.51103 0.76658 0.86884 1.4486 1.167 2.2577 0.29812 0.80917 0.53653 1.7455 0.72391 2.7761 0.18739 1.0306 0.32362 2.1554 0.38327 3.2371 0.0596 1.0818 0.0425 2.1207-0.10236 3.0832-0.14484 0.96251-0.41743 1.848-0.74112 2.5976-0.32366 0.74957-0.69826 1.363-1.1104 2.1366-0.41216 0.77349-0.86154 1.7076-1.2382 2.4944-0.37664 0.78684-0.70013 1.468-0.87046 2.2602-0.17036 0.79215-0.18768 1.6954-0.2899 2.5812-0.10223 0.88582-0.28922 1.7544-0.4766 2.2995-0.1874 0.54513-0.37497 0.76679-0.56831 0.8443-0.19335 0.0775-0.39303 0.0109-0.67071-0.0762-0.27767-0.0869-0.61839-0.18882-0.89096-0.41028-0.27256-0.22145-0.47709-0.56219-0.57079-0.99665-0.0937-0.4344-0.0768-0.96252 0.0426-1.4224 0.11913-0.45996 0.34067-0.85161 0.51102-1.3201 0.17036-0.46848 0.28998-1.0142 0.17114-1.2783-0.11888-0.26407-0.47592-0.24704-0.79187-0.12773-0.31597 0.11937-0.58827 0.34097-0.96303 0.67314-0.37478 0.3322-0.85226 0.77496-1.2611 1.2775-0.40884 0.50255-0.74891 1.065-0.86644 1.5928-0.11756 0.52772-0.0109 1.0208 0.10393 1.5412 0.11563 0.52032 0.25154 1.1166 0.31118 1.8491 0.0596 0.73252 0.0426 1.6017 0.17034 2.5812 0.12772 0.97958 0.40057 2.0694 0.52 3.3641 0.11949 1.2947 0.0856 2.7935 0.0426 3.9349-0.043 1.1414-0.0941 1.8743-0.15309 2.641-0.0589 0.76665-0.12549 1.5674-0.21209 2.5468-0.0865 0.97942-0.18852 2.0863-0.20555 3.0488-0.0172 0.96252 0.0508 1.7807 0.0254 2.5133-0.0255 0.73252-0.14484 1.3798-0.34311 2.1627-0.19825 0.78293-0.47524 1.7015-0.73457 2.5206-0.25933 0.8191-0.51506 1.5851-0.68542 2.1644-0.17035 0.57922-0.25564 0.97118-0.44303 1.1415-0.18739 0.17036-0.47658 0.11938-0.77469-0.0851-0.29813-0.20443-0.60465-0.56239-0.80907-0.88608-0.20443-0.32367-0.30693-0.61308-0.31447-1.1325-8e-3 -0.51946 0.0793-1.2685 0.23912-1.8138 0.15988-0.54537 0.39848-0.93764 0.57734-1.2357 0.17887-0.29814 0.29854-0.50197 0.56258-0.84267 0.26406-0.34071 0.67264-0.81804 0.83447-1.2013 0.16184-0.3833 0.0762-0.67256-0.16295-0.83448-0.23924-0.16189-0.632-0.19601-0.92863-0.17032-0.29665 0.0257-0.50133 0.11044-0.64776 0.37424-0.14642 0.26372-0.23467 0.70619-0.45287 1.1072-0.21817 0.40099-0.57598 0.80919-0.86558 1.2521-0.2896 0.44293-0.5113 0.92005-0.67314 1.4396-0.16182 0.51957-0.26368 1.0817-0.34886 1.678-0.0852 0.59623-0.15371 1.227 8e-3 1.8147 0.16184 0.5877 0.55345 1.1328 0.88033 1.6935 0.32689 0.56069 0.58883 1.1367 0.59946 1.7189 0.0109 0.58211-0.21012 1.2124-0.43158 1.9449-0.22145 0.73252-0.44349 1.5673-0.70753 2.4191-0.26405 0.85176-0.57088 1.721-0.95651 2.2242-0.38561 0.50324-0.85001 0.64079-1.3905 0.57979-0.54048-0.0611-1.1703-0.31638-1.6558-0.60599-0.48549-0.28959-0.82623-0.61365-1.0818-0.94587-0.25552-0.33218-0.42613-0.67275-0.58798-1.0646-0.16184-0.3918-0.31476-0.83505-0.43403-1.4568-0.11913-0.6218-0.2044-1.4222-0.2555-2.2143-0.0511-0.79216-0.0683-1.576-0.10235-2.2234-0.034-0.64734-0.0857-1.1584-0.24322-1.5371-0.15751-0.37873-0.42102-0.62505-0.69361-0.66823-0.27259-0.0431-0.57943 0.0935-0.8009 0.49379-0.22145 0.40035-0.35787 1.0642-0.31526 1.8392 0.0426 0.77509 0.2638 1.6608 0.44383 2.5976 0.18005 0.93678 0.31926 1.9247 0.52984 2.8875 0.21059 0.96286 0.49982 1.9512 0.832 2.8285 0.3322 0.87733 0.70704 1.6441 0.82629 2.3937 0.11913 0.74955-0.0168 1.4818-0.2383 2.2143-0.22146 0.73252-0.52848 1.4648-0.94913 2.4002-0.42065 0.9354-0.9548 2.0739-1.5019 3.1331-0.54707 1.0593-1.1263 2.0811-1.6714 2.9669-0.54513 0.88582-1.0563 1.6352-1.614 2.3814-0.55784 0.74617-1.1627 1.4896-1.5887 2.1693-0.42606 0.67969-0.69882 1.3266-1.0605 1.9883-0.36167 0.66177-0.81247 1.3377-1.2816 1.9392-0.18054 0.23147-0.29979 0.34998-0.47579 0.55603-0.0072-0.0166-0.03006-0.0627-0.03524-0.0753-0.03464-0.0836-0.01714-0.44559-0.04913-0.87784-0.03211-0.43229-0.10428-1.122-0.18097-1.6501-0.07664-0.52808-0.15772-0.89431-0.31529-1.3692-0.15757-0.47485-0.39189-1.0581-0.60271-1.5011-0.21081-0.44291-0.39797-0.74516-0.58961-1.0965s-0.3883-0.75169-0.62892-1.2734c-0.24062-0.5217-0.52552-1.1644-0.77551-1.705-0.24998-0.54047-0.46435-0.97855-0.56914-1.1923-0.10477-0.21378-0.39053-0.92331-0.45859-1.0924-0.06808-0.16912-0.35366-0.88677-0.42173-1.0581-0.06808-0.17123-0.2052-0.75505-0.2686-1.0171-0.06336-0.26204-0.12332-0.49999-0.1425-0.80662-0.01919-0.30664 0.0024-0.68162 0.11708-1.067 0.11502-0.38543 0.32362-0.78137 0.46842-1.0752 0.14479-0.29385 0.22584-0.48592 0.35787-0.6371 0.13202-0.15119 0.31525-0.2619 0.48561-0.29809 0.17037-0.0361 0.3282 8.6e-4 0.51346 0.0172 0.18526 0.0142 0.3978 7e-3 0.58306-0.0491 0.18527-0.0553 0.34328-0.15704 0.45614-0.31034 0.11285-0.15342 0.18113-0.35801 0.20882-0.60929 0.02764-0.25127 0.01473-0.54912 0.04671-0.88771 0.03199-0.33859 0.10863-0.71798 0.22356-1.063 0.11502-0.34496 0.26793-0.65576 0.39144-0.90487 0.12351-0.24915 0.21716-0.43646 0.30873-0.63876 0.09161-0.2023 0.1813-0.41989 0.24731-0.71162 0.06603-0.29173 0.10887-0.65772 0.16214-0.96226 0.05323-0.30452 0.11708-0.54734 0.01087-0.73046-0.10645-0.18313-0.38354-0.30677-0.6412-0.35788-0.25766-0.0511-0.49624-0.0293-0.73047 0.0729-0.23424 0.10222-0.46462 0.28544-0.69033 0.51755s-0.44677 0.5126-0.6363 0.83201c-0.18952 0.31941-0.34687 0.67719-0.53638 1.0818-0.18952 0.40459-0.4109 0.8562-0.61745 1.3332-0.20656 0.47699-0.39846 0.97916-0.60928 1.4945-0.21081 0.51532-0.44047 1.0436-0.68215 1.4258-0.24168 0.38217-0.49558 0.61859-0.6191 0.73373s-0.27026 0.0109-0.30545-0.0126c-0.03524-0.0249-0.18897-0.72786-0.20555-1.1858-0.01666-0.45793 0.0257-1.0287 0.0385-1.5993 0.0128-0.57071-0.0048-1.1411-0.08111-1.7778-0.07664-0.6367-0.21294-1.3394-0.2768-1.8909-0.06384-0.55152-0.05492-0.95188-0.05082-1.1457 0.0036-0.1938 0.1149-0.88763 0.2424-1.4626 0.12743-0.57501 0.32804-1.3841 0.47496-1.9441 0.14693-0.56003 0.24026-0.87158 0.37016-1.1932 0.1299-0.32152 0.2966-0.65375 0.44138-1.0818 0.14481-0.428 0.26811-0.95154 0.38735-1.3242 0.11925-0.37265 0.23445-0.5943 0.33739-0.81972 0.10296-0.22544 0.1934-0.45424 0.23667-0.5634 0.04321-0.10924 0.53118-0.69993 0.75585-1.0457 0.22468-0.34583 0.4335-0.74632 0.69116-1.0785 0.25766-0.3322 0.56418-0.59595 0.92614-0.9729 0.36201-0.37689 0.77908-0.86703 1.0687-1.212 0.2896-0.34497 0.45152-0.54454 0.62401-0.74684 0.17248-0.2023 0.35521-0.40713 0.57241-0.65841 0.21721-0.25127 0.46872-0.54895 0.73702-0.81727 0.26831-0.26829 0.55404-0.50703 0.86069-0.72637 0.30663-0.21932 0.63445-0.41957 0.9475-0.66658 0.31303-0.24702 0.61054-0.54095 0.88522-0.7837 0.27469-0.24277 0.52668-0.4345 0.82056-0.53885 0.29386-0.10428 0.63034-0.12139 0.97529-0.17032 0.34497-0.049 0.69779-0.12994 1.1538-0.33167 0.45605-0.20166 1.0149-0.52379 1.2963-0.68623 0.28143-0.16246 1.3487-0.65633 1.8425-0.92949 0.49374-0.27316 0.94561-0.57123 1.397-0.87784 0.45144-0.30664 0.90273-0.6217 1.3201-0.89423 0.41737-0.27257 0.80018-0.50328 1.3496-0.7886 0.54937-0.28534 1.2653-0.62561 1.8147-0.94502 0.54939-0.31941 0.93283-0.61758 1.397-0.93274 0.4642-0.31516 1.0094-0.64773 1.4224-0.9246 0.41311-0.27682 0.69342-0.49769 0.88934-0.71489 0.19591-0.2172 0.30676-0.43058 0.30464-0.59455-8.6e-4 -0.16394-0.11683-0.2789-0.16789-0.33-0.0512-0.051-0.78164 0.16997-1.2087 0.29808-0.42708 0.12803-0.91259 0.27285-1.3087 0.39635-0.39607 0.12343-0.70235 0.22571-1.0752 0.42747-0.37287 0.20175-0.81226 0.50279-1.2734 0.71082-0.46116 0.20802-0.94373 0.32307-1.1833 0.37997-0.23957 0.0569-1.2051 0.26163-1.7443 0.38817-0.53916 0.12645-1.1364 0.27802-1.433 0.35294-0.29672 0.075-0.84153 0.31638-1.1416 0.48151-0.30003 0.16514-0.63075 0.37644-0.90323 0.6101-0.27253 0.23365-0.48636 0.4896-0.58882 0.61253-0.10235 0.12297-0.7673 0.48579-1.013 0.57242-0.24567 0.0867-0.40863 0.0806-0.50198-0.0851-0.0933-0.16563-0.11756-0.49096-0.0393-0.80416 0.0783-0.31319 0.25897-0.61385 0.47579-0.90898 0.21683-0.29512 0.46974-0.58412 0.67151-0.87622s0.35229-0.58755 0.34803-0.77795c-5e-3 -0.1904-0.16333-0.27612-0.23912-0.31692-0.0758-0.0409-0.81973 0.28357-1.1882 0.50691-0.36851 0.22332-0.73035 0.50672-1.1956 0.95402-0.46526 0.44731-1.0342 1.0584-1.3143 1.3594-0.28007 0.30092-1.632 1.7497-2.3683 2.4919-0.73631 0.74222-1.5375 1.5069-2.1308 2.1791-0.5933 0.67217-0.97856 1.2516-1.3332 1.7288-0.35461 0.47711-0.67868 0.85212-0.91722 1.1588-0.23848 0.30664-0.39207 0.54539-0.54538 0.63056-0.15332 0.0852-0.30594 0.0168-0.31446-0.20472-0.0084-0.22147 0.12724-0.59645 0.26778-1.0777 0.14055-0.48125 0.28561-1.0687 0.52411-1.8311 0.2385-0.76233 0.57075-1.6994 0.86884-2.5852 0.29812-0.88582 0.56174-1.7208 0.90246-2.6279 0.34071-0.90709 0.75874-1.8862 1.1931-2.8572 0.4344-0.97101 0.88505-1.9335 1.2939-2.7597s0.77578-1.5165 1.1506-2.2406c0.37478-0.72399 0.75744-1.4818 1.1621-2.1291 0.40459-0.64735 0.83045-1.1839 1.3373-1.7468 0.50682-0.56282 1.0951-1.152 1.6133-1.5919 0.51809-0.43997 0.96646-0.731 1.1866-0.87381 0.22011-0.14277 1.3309-0.69807 1.7934-1.0588 0.46256-0.36077 0.83547-0.80609 1.4151-1.307 0.5796-0.50091 1.3654-1.0573 1.7541-1.3323 0.38866-0.27505 1.5962-1.2289 2.1865-1.732 0.59027-0.50314 1.1716-1.0357 1.4577-1.2979 0.28609-0.26226 1.2733-0.2143 1.7131-0.21128 0.43982 4e-3 0.82532-0.0158 1.0662-0.10235 0.24093-0.0873 0.33745-0.244 0.31938-0.5331-0.0181-0.28911-0.15039-0.71041-0.26779-1.0417-0.11744-0.33127-0.22028-0.57256-0.407-0.62073-0.1867-0.04816-0.45765 0.09632-0.78287 0.26205-0.32524 0.16563-0.70415 0.35216-0.927 0.43648-0.22285 0.08436-0.28944 0.06675-0.25632-0.15308 0.0331-0.21984 0.16608-0.64137 0.31365-1.054 0.14752-0.41257 0.30991-0.81635 0.55686-1.2259 0.24693-0.40954 0.57832-0.82472 0.88848-1.2644 0.3102-0.43968 0.5989-0.90349 0.92863-1.3479 0.32973-0.44441 0.70042-0.86952 0.88119-1.0769 0.18071-0.20737 0.60439-0.97101 0.84101-1.2669 0.23663-0.29584 0.50213-0.51241 0.83038-0.87381 0.32824-0.36137 0.71949-0.86721 1.108-1.343 0.38848-0.47582 0.77375-0.9216 1.0056-1.3643 0.23189-0.4427 0.31005-0.8823 0.32511-1.325 0.0158-0.44269-0.0331-0.88882-0.10235-1.2472-0.0693-0.35835-0.15932-0.62937-0.2858-0.84919-0.12646-0.21984-0.28903-0.38851-0.48478-0.45779-0.19575-0.06928-0.42453-0.03886-0.4938-0.20144-0.0693-0.16262 0.0213-0.51793 0.0573-0.8582 0.0361-0.34029 0.0178-0.66527-0.0861-0.93189-0.10392-0.26666-0.29372-0.47494-0.38407-0.57405-0.0903-0.09909-0.6919-0.06288-0.98267 0.09825-0.29081 0.16125-0.57121 0.46523-0.70673 0.61254-0.13549 0.14737-0.57157 0.40215-0.75093 0.54294-0.1794 0.14072-0.32445 0.29746-0.55033 0.41191-0.22586 0.11442-0.53285 0.18619-0.80087 0.36687-0.26804 0.18068-0.49708 0.46998-0.55852 0.80171-0.0614 0.33172 0.0451 0.70603 0.2727 1.3233 0.22763 0.61732 0.57635 1.4775 0.62318 2.3421 0.0469 0.86455-0.20843 1.7336-0.64283 2.5853-0.43439 0.85178-1.0476 1.6865-1.678 2.483-0.63031 0.79642-1.2774 1.5549-1.8311 2.347-0.55365 0.79215-1.0135 1.6177-1.5265 2.4854-0.51298 0.86764-1.0788 1.7772-1.3561 2.2225-0.27727 0.44529-0.97942 1.8314-1.5314 2.4796-0.55193 0.64822-1.3097 1.2619-1.9613 1.7091-0.6516 0.44716-1.197 0.72779-1.9179 1.0007-0.7209 0.27291-1.618 0.53772-2.0628 0.66905-0.44487 0.13137-1.0949 0.20012-1.2554 0.217-0.16051 0.0169 0.08474-1.0567 0.17934-1.6591 0.09463-0.60243 0.15852-1.2589 0.32676-1.687 0.16821-0.42801 0.44118-0.62824 0.76485-0.7624 0.32367-0.13423 0.69832-0.20159 1.054-0.33575 0.35561-0.13423 0.69178-0.33441 1.0048-0.65594 0.31303-0.32154 0.60254-0.76496 0.78779-1.2824 0.18526-0.51744 0.2663-1.109 0.38981-1.5371 0.12344-0.42801 0.28945-0.69212 0.5118-1.0727 0.22238-0.38066 0.50134-0.8781 0.63793-1.1219 0.13661-0.24378 0.58061-1.5417 0.72474-2.1276 0.14422-0.58582 0.21225-1.1144 0.31447-1.8385 0.10223-0.724 0.23858-1.644 0.4856-2.4191 0.24702-0.7751 0.60529-1.4055 1.0057-2.121 0.40032-0.71548 0.84259-1.5156 1.2685-2.0948 0.42589-0.57921 0.83524-0.93678 1.2824-1.0646 0.44717-0.12774 0.9324-0.02582 1.2816-0.18345 0.34924-0.15751 0.56207-0.57516 0.7665-0.84347 0.20441-0.26831 0.40059-0.38732 0.65185-0.60026 0.25127-0.21294 0.55781-0.51964 0.7665-0.84756 0.20868-0.32793 0.31947-0.67696 0.31773-0.9614-1e-3 -0.28444-0.11599-0.50458-0.16787-0.60435-0.0518-0.09982-0.4483-0.42692-0.49134-0.61172-0.0431-0.18482 0.0629-0.39595 0.11056-0.49135 0.0477-0.0954 0.20334-0.66527 0.30873-0.98928 0.10537-0.32398 0.24154-0.69882 0.56095-1.0523 0.31941-0.3535 0.82213-0.68588 1.2054-0.97126 0.38331-0.28534 0.64722-0.52328 0.90899-0.83282 0.26177-0.30956 0.52149-0.69057 0.6453-0.87218 0.12377-0.18157 0.19302-0.64945-0.0229-0.89586-0.21596-0.24644-0.68072-0.51799-1.0998-0.52411-0.41908-0.0064-0.79225 0.2531-1.1325 0.42175-0.3403 0.16865-0.64804 0.24724-0.82876 0.17197-0.18068-0.07527-0.23464-0.30414-0.26778-0.56914-0.0331-0.26503-0.0455-0.56632-0.0876-0.87947-0.0421-0.31319-0.11382-0.6383-0.0328-0.97367 0.0811-0.33538 0.31535-0.68145 0.4242-0.84185 0.10887-0.16038 0.69307-0.84205 1.0515-1.2963 0.35839-0.45429 0.79202-1.0321 1.2136-1.5018 0.42159-0.4698 0.83102-0.83106 1.072-1.1563 0.24092-0.32524 0.31276-0.61416 0.33084-0.90324 0.0181-0.28912-0.0176-0.57863-0.14422-0.78942-0.12645-0.21081-0.34364-0.34336-0.53638-0.35541-0.19273-0.01268-0.36136 0.09651-0.56012 0.25304-0.19877 0.15657-0.42732 0.36156-0.66824 0.40373-0.24091 0.04215-0.4941-0.07861-0.75911-0.09666-0.26503-0.01807-0.54193 0.06672-0.8009 0.22929-0.25899 0.16262-0.49998 0.40319-0.62648 0.7706-0.12646 0.36739-0.13818 0.86154-0.22847 1.3192-0.0903 0.45775-0.25886 0.87887-0.32511 0.90898-0.0663 0.03011-0.0308-0.331-0.0548-0.65021-0.0241-0.31922-0.10827-0.596-0.30627-0.71655-0.19807-0.12059-0.50945-0.08463-0.6674-0.0664-0.15799 0.01823-0.68245 0.56616-0.95651 0.88848-0.27404 0.32236-0.55129 0.68358-0.68379 1.1293-0.13248 0.44569-0.11985 0.9759-0.0654 1.7107 0.0542 0.7348 0.15008 1.674 0.10646 2.4928-0.0436 0.81873-0.22708 1.5163-0.31446 1.8482-0.0873 0.33204-0.57497 0.91791-0.80088 1.3119-0.2259 0.39397-0.44298 0.89938-0.46105 1.4716-0.0181 0.57218 0.16255 1.2111 0.2555 1.7885 0.0928 0.57743 0.0981 1.0936 0.0158 1.4626-0.0825 0.36894-0.25315 0.58997-0.48726 0.89346-0.23409 0.30345-0.53148 0.68948-0.86395 1.1047-0.33246 0.41523-0.72467 0.89208-1.1932 1.352-0.46846 0.45996-1.0134 0.90255-1.4904 1.3029-0.477 0.40033-0.88582 0.75829-1.2652 0.82056-0.37938 0.06228-0.72946-0.1708-0.94175-0.47416-0.21229-0.30335-0.26342-0.66131-0.32429-1.0785-0.0608-0.41719-0.13151-0.89354-0.3079-1.2857-0.1764-0.39218-0.4656-0.74995-0.72966-0.73293-0.26405 0.01714-0.50295 0.40873-0.64775 1.022-0.14481 0.61328-0.19572 1.4474-0.15312 2.2225 0.0426 0.77512 0.17931 1.4913 0.30709 2.0194 0.12777 0.52809 0.24646 0.86806 0.41682 0.9958 0.17035 0.12773 0.39239 0.04297 0.66495 0.20474 0.27256 0.16182 0.59565 0.57087 0.80007 1.0564 0.20441 0.48551 0.28974 1.0471 0.27271 1.7541-0.0171 0.70697-0.13617 1.5591-0.38736 2.22-0.25118 0.66099-0.63425 1.1313-1.0859 1.6746-0.4516 0.54341-0.99657 1.191-1.465 1.949-0.46848 0.75808-0.86017 1.6263-1.1923 2.1799-0.33219 0.55366-0.60481 0.79286-0.82628 0.85248-0.22146 0.0596-0.39175-0.0597-0.511-0.35787-0.11925-0.29811-0.18736-0.77575-0.21292-1.3635-0.02558-0.58772-0.0084-1.2858 0.0688-2.4952 0.07737-1.2095 0.21426-2.9299 0.2555-4.2248 0.04128-1.2948-0.0097-2.2146-0.07773-3.3558-0.06808-1.1414-0.15344-2.5046-0.31528-3.663-0.16214-1.1582-0.40028-2.112-0.55471-2.8528-0.15443-0.7409-0.22483-1.2689-0.07785-1.465 0.14702-0.19622 0.50489-0.11044 0.85412-0.0084 0.34922 0.10223 0.68997 0.22092 1.0818 0.2039 0.39181-0.01714 0.83411-0.16997 1.013-0.39144 0.17888-0.22146 0.09426-0.51096-0.20391-0.80908-0.29811-0.29812-0.80951-0.60515-1.2865-0.90324-0.477-0.29811-0.91996-0.58792-1.1669-0.97126-0.24702-0.38329-0.29778-0.86009-0.2211-1.3626 0.07664-0.50255 0.28129-1.0305 0.60844-1.7271 0.32716-0.69664 0.77703-1.5617 1.1448-2.2979 0.36781-0.73615 0.67403-1.3838 0.98353-2.1152 0.30948-0.73144 0.62198-1.5466 0.79516-2.2217 0.17318-0.67509 0.22385-1.2544 0.55603-2.1488 0.3322-0.8944 0.94579-2.1036 1.4994-2.998 0.55365-0.8944 1.0473-1.4733 1.6436-1.9588 0.59624-0.48551 1.2951-0.87802 1.8147-1.2357 0.51958-0.35774 0.86026-0.68145 1.5076-1.0392 0.64735-0.35774 1.6008-0.74894 2.5804-0.97041 0.9795-0.22146 1.9846-0.27266 2.632-0.52819 0.64734-0.25553 0.93712-0.71536 1.0564-1.0646 0.11913-0.34923 0.0684-0.58795-0.0933-0.8009-0.16182-0.21294-0.43446-0.40026-0.91148-0.511-0.477-0.11077-1.1582-0.14484-1.6607-0.12773-0.50255 0.01711-0.82654 0.08478-1.4143 0.13597-0.5877 0.05119-1.4392 0.0851-2.2152 0.06799-0.77594-0.01711-1.4763-0.0851-2.0112-0.06799-0.53496 0.01727-0.90932 0.11949-1.1055 0.41764-0.19621 0.29811-0.21432 0.79182-0.38406 1.09-0.16975 0.29814-0.49304 0.4514-0.70016 0.40126-0.20713-0.05007-0.2979-0.3032-0.47989-0.31364-0.18198-0.01111-0.47132 0.17636-0.77795 0.46596-0.30665 0.2896-0.63102 0.6821-0.85249 1.108-0.22145 0.42588-0.34015 0.88582-0.50198 1.4224-0.16185 0.53661-0.36653 1.1497-0.5454 1.6182-0.17887 0.46847-0.3318 0.79202-0.4766 0.89423-0.14481 0.1022-0.28154-0.01743-0.34967-0.22192-0.0682-0.20443-0.0682-0.49334 0.02873-0.8582 0.0968-0.36487 0.29041-0.80543 0.53965-1.3618 0.24925-0.5564 0.57321-1.272 0.87133-1.9023 0.29812-0.63031 0.57043-1.1754 0.79188-1.678 0.22146-0.50255 0.39239-0.96217 0.62237-1.4306 0.22997-0.46848 0.51929-0.9457 0.83856-1.411 0.31927-0.46531 0.66824-0.91868 1.0859-1.4445 0.41764-0.52591 0.92889-1.1562 1.3037-1.6673 0.37478-0.51106 0.61277-0.90315 0.79351-1.3626 0.18077-0.45953 0.30382-0.98619 0.37671-1.4896 0.0729-0.50342 0.10694-1.0323 0.0303-1.424-0.0768-0.39182-0.26383-0.64727-0.49379-0.72392-0.22999-0.07671-0.50247 0.02567-0.8091 0.18753-0.30663 0.16183-0.64754 0.38356-0.88608 0.46022-0.2385 0.07671-0.37473 8e-3 -0.54867-0.21946-0.17393-0.22804-0.38561-0.61616-0.73619-0.72228-0.35058-0.10613-0.86163 0.03043-1.2194 0.30299-0.35775 0.27257-0.56176 0.68104-0.71655 1.1833-0.15477 0.50228-0.26003 1.0981-0.38488 1.6182-0.12485 0.52009-0.27825 1.0142-0.51673 1.3209-0.23851 0.30665-0.56241 0.42582-0.78616 0.69772-0.22375 0.2719-0.34735 0.69645-0.52164 1.3537-0.17429 0.65719-0.41295 1.5945-0.70508 2.5902s-0.63754 2.0503-0.87947 2.9292c-0.24198 0.87896-0.39536 1.6281-0.50608 1.9007-0.11068 0.27257-0.17901 0.06814-0.2727-0.2555-0.09366-0.32367-0.21258-0.76627-0.34886-1.2177-0.13628-0.45145-0.29022-0.91173-0.28169-1.2865 0.0084-0.37478 0.179-0.66456 0.31528-1.1415 0.13628-0.47699 0.23859-1.1413 0.20226-1.7794-0.03633-0.63818-0.21116-1.2503-0.45367-1.6263-0.24252-0.37606-0.56633-0.5631-0.83038-0.35868-0.26405 0.20441-0.46793 0.80082-0.502 1.397-0.03404 0.59624 0.10223 1.1925 0.0426 1.3373-0.05962 0.14484-0.31589-0.16179-0.68215-0.38326-0.36626-0.22146-0.84311-0.35789-1.3422-0.29153-0.49907 0.0664-1.0201 0.3354-1.2145 0.72228-0.19435 0.38687-0.04067 0.88102 0.20636 1.5625 0.24701 0.68141 0.58711 1.5501 0.97041 2.4445 0.38329 0.89431 0.80983 1.8143 1.2783 2.5468 0.46848 0.73254 0.97941 1.2773 1.3397 1.8556 0.36036 0.57832 0.57008 1.1898 0.84593 1.9326 0.27585 0.74284 0.63364 1.6624 0.78696 2.5313 0.15332 0.86884 0.10163 1.6871-0.02619 2.4879-0.12776 0.80066-0.33178 1.5839-0.60436 2.2397-0.27256 0.65586-0.61332 1.1843-0.91147 1.2865-0.29812 0.10222-0.55338-0.22188-0.87707-0.64776-0.32368-0.42588-0.71535-0.95342-1.1071-1.5838-0.39182-0.63031-0.78381-1.3632-1.1842-2.0702-0.40033-0.70698-0.8092-1.3886-1.2095-2.2233-0.40034-0.83473-0.79268-1.8223-1.1334-2.7933-0.34071-0.97101-0.6302-1.9252-0.80908-2.6491-0.17887-0.72401-0.24666-1.2185-0.26369-1.8999-0.01702-0.68141 0.01666-1.5501 0.0933-2.487s0.19589-1.9419 0.3595-2.9211c0.16362-0.97916 0.37155-1.9326 0.57242-2.7425 0.20088-0.80996 0.40524-1.5254 0.58552-2.3429 0.18028-0.81748 0.33659-1.7366 0.38489-2.5378 0.04828-0.80113-0.0024-1.5332-0.17279-2.1635-0.17035-0.63031-0.46035-1.1585-0.73293-1.6526-0.27256-0.49402-0.52751-0.95411-0.75749-1.397-0.22997-0.44292-0.43464-0.86884-0.67314-1.0392-0.2385-0.17035-0.51141-0.08482-0.79516 0.0098-0.28376 0.09464-0.57856 0.19811-0.78616 0.0344-0.2076-0.16372-0.34407-0.58906-0.57405-1.1342-0.22997-0.54513-0.55305-1.2097-0.88522-1.4397-0.08306-0.05748-0.16654-0.0882-0.24895-0.09499z" fill="#de8787" stroke="#000" stroke-width=".48952"/></svg>
